<?xml version="1.0" encoding="UTF-8" standalone="no"?>
<!-- Created with Inkscape (http://www.inkscape.org/) -->

<svg
   width="500"
   height="500"
   viewBox="0 0 500 500"
   version="1.1"
   id="svg1"
   sodipodi:docname="kairo-org-logo.svg"
   inkscape:version="1.4.3 (0d15f75042, 2025-12-25)"
   inkscape:export-filename="kairo-org-logo.png"
   inkscape:export-xdpi="96"
   inkscape:export-ydpi="96"
   xmlns:inkscape="http://www.inkscape.org/namespaces/inkscape"
   xmlns:sodipodi="http://sodipodi.sourceforge.net/DTD/sodipodi-0.dtd"
   xmlns:xlink="http://www.w3.org/1999/xlink"
   xmlns="http://www.w3.org/2000/svg"
   xmlns:svg="http://www.w3.org/2000/svg">
  <sodipodi:namedview
     id="namedview1"
     pagecolor="#ffffff"
     bordercolor="#000000"
     borderopacity="0.25"
     inkscape:showpageshadow="2"
     inkscape:pageopacity="0.0"
     inkscape:pagecheckerboard="0"
     inkscape:deskcolor="#d1d1d1"
     inkscape:zoom="2.0898438"
     inkscape:cx="-199.2972"
     inkscape:cy="266.76635"
     inkscape:window-width="5108"
     inkscape:window-height="2103"
     inkscape:window-x="0"
     inkscape:window-y="0"
     inkscape:window-maximized="1"
     inkscape:current-layer="layer1" />
  <defs
     id="defs1">
    <linearGradient
       id="linearGradient16"
       inkscape:collect="always">
      <stop
         style="stop-color:#110000;stop-opacity:1;"
         offset="0"
         id="stop17" />
      <stop
         style="stop-color:#1c0000;stop-opacity:1;"
         offset="1"
         id="stop18" />
    </linearGradient>
    <linearGradient
       id="swatch16"
       inkscape:swatch="solid">
      <stop
         style="stop-color:#000000;stop-opacity:1;"
         offset="0"
         id="stop16" />
    </linearGradient>
    <linearGradient
       id="linearGradient1227">
      <stop
         style="stop-color:#ff0000;stop-opacity:1;"
         offset="0"
         id="stop1227" />
      <stop
         style="stop-color:#808080;stop-opacity:0;"
         offset="1"
         id="stop1228" />
    </linearGradient>
    <linearGradient
       id="linearGradient913">
      <stop
         style="stop-color:#ff0000;stop-opacity:1;"
         offset="0"
         id="stop912" />
      <stop
         style="stop-color:#221111;stop-opacity:0.4509804;"
         offset="1"
         id="stop913" />
    </linearGradient>
    <linearGradient
       id="linearGradient908">
      <stop
         style="stop-color:#221111;stop-opacity:0.4509804;"
         offset="0"
         id="stop908" />
      <stop
         style="stop-color:#ff0000;stop-opacity:1;"
         offset="1"
         id="stop909" />
    </linearGradient>
    <linearGradient
       id="linearGradient906">
      <stop
         style="stop-color:#ff0000;stop-opacity:1;"
         offset="0"
         id="stop906" />
      <stop
         style="stop-color:#000000;stop-opacity:0.23999999;"
         offset="1"
         id="stop907" />
    </linearGradient>
    <linearGradient
       id="linearGradient904">
      <stop
         style="stop-color:#ff0000;stop-opacity:1;"
         offset="0"
         id="stop904" />
      <stop
         style="stop-color:#221111;stop-opacity:0.44999999;"
         offset="1"
         id="stop905" />
    </linearGradient>
    <clipPath
       clipPathUnits="userSpaceOnUse"
       id="clipPath122">
      <path
         id="path123"
         style="fill:none;stroke:#000000;stroke-width:0.964999;stroke-dasharray:none;stroke-opacity:1"
         d="m 253.00523,99.230119 -16.78037,5.29e-4 v 29.385282 h 18.16116 v -28.47786 c -0.045,0.0332 -0.10266,0.0375 -0.15399,0.0104 0.009,0.0658 0.0186,0.13153 0.0269,0.19739 0.001,0.0137 0.006,0.0276 0.004,0.0413 -0.001,0.0111 -2.6e-4,0.0319 -0.006,0.0403 -5.3e-4,5.3e-4 -0.002,0.002 -0.002,0.002 l -5.3e-4,5.3e-4 h -5.3e-4 l -5.3e-4,5.3e-4 h -5.3e-4 -5.3e-4 -5.3e-4 c -5.2e-4,2e-5 -0.002,4e-5 -0.003,0 h -5.3e-4 c -0.0111,-0.003 -0.0212,-0.008 -0.031,-0.0139 0.0151,0.0381 -0.0102,0.0699 -0.0506,0.0656 -0.006,0.009 -0.0129,0.0158 -0.0217,0.0196 -0.0114,0.005 -0.0212,0.008 -0.03,0.009 0.0271,0.0382 0.0546,0.076 0.0832,0.11318 0.21448,0.27877 -0.0701,0.49187 -0.28422,0.21291 -0.0931,-0.12127 -0.17802,-0.24792 -0.25942,-0.37725 -0.0803,-0.13279 -0.15916,-0.2663 -0.23616,-0.40101 -0.0925,-0.14962 -0.17284,-0.306187 -0.25115,-0.463532 -0.0585,-0.119613 -0.11156,-0.241702 -0.16226,-0.364834 z m 0.91622,5.29e-4 c 0.005,0.01238 0.0105,0.02484 0.0155,0.03721 0.078,-0.03317 0.0715,-0.01326 0.11007,0.04857 0.032,0.05713 0.0643,0.113887 0.0971,0.170531 0.0329,0.03274 0.0658,0.06548 0.0987,0.09819 0.0518,0.0085 0.0982,0.04466 0.14005,0.077 0.001,7.93e-4 0.002,0.0016 0.003,0.0026 v -0.434084 z m 0.0925,0.06201 v 5.3e-4 5.29e-4 h 5.3e-4 v -5.29e-4 -5.3e-4 z" />
    </clipPath>
    <clipPath
       clipPathUnits="userSpaceOnUse"
       id="clipPath469">
      <path
         id="path470"
         style="fill:none;stroke:#000000;stroke-width:0.964999;stroke-dasharray:none;stroke-opacity:1"
         d="m 238.19476,54.243716 v 24.312729 h 15.65641 v -23.82852 c -0.0485,-0.0095 -0.0997,-0.03034 -0.15141,-0.0646 -0.007,0.04707 -0.0187,0.09386 -0.0351,0.141079 -0.009,0.02043 -0.0182,0.03983 -0.0284,0.05839 0.18424,0.483558 -0.32009,0.71291 -0.59118,0.199988 -0.0541,-0.10243 -0.1067,-0.205869 -0.1633,-0.306959 -0.009,-0.01545 -0.0168,-0.03112 -0.0253,-0.04651 -0.0205,-2.65e-4 -0.041,-2.65e-4 -0.0615,-0.0011 -0.0311,-0.0011 -0.0624,-0.0027 -0.0935,-0.0031 -0.0251,-2.65e-4 -0.0499,-5.3e-5 -0.0749,5.29e-4 -0.0234,5.29e-4 -0.0469,0.0016 -0.0703,0.0016 -0.0223,-2.65e-4 -0.0449,-0.0013 -0.0672,-0.0016 -0.0295,-5.29e-4 -0.0589,-0.0016 -0.0884,-0.0026 -0.0199,-5.29e-4 -0.04,-5.29e-4 -0.0599,-5.29e-4 h -0.0667 -0.0718 c -0.0223,0 -0.0449,5e-6 -0.0672,0 -0.0273,-8e-6 -0.0543,3.2e-5 -0.0816,0 -0.0243,-3.2e-5 -0.0486,1.99e-4 -0.0729,0 -0.0176,-1.64e-4 -0.0351,-7.94e-4 -0.0527,-0.0011 -0.0175,-1.01e-4 -0.0352,2.64e-4 -0.0527,0.0016 -0.0228,0.0016 -0.0458,0.0035 -0.0687,0.0036 -0.0159,3e-6 -0.0318,-3e-6 -0.0476,0 -0.0127,8e-6 -0.0255,-2.9e-5 -0.0382,0 -0.0156,3.7e-5 -0.0309,-7.4e-5 -0.0465,0 -0.0253,1.24e-4 -0.0508,2.65e-4 -0.076,0 -0.0244,-5.29e-4 -0.0488,-0.0011 -0.0729,-0.0052 h -5.3e-4 c -0.10278,-0.01717 -0.14045,-0.07688 -0.12351,-0.125577 -1.37906,-0.01958 -2.75828,-0.04386 -4.13721,-0.07079 -3.02375,-0.06477 -6.04697,-0.147355 -9.06922,-0.261485 z" />
    </clipPath>
    <clipPath
       clipPathUnits="userSpaceOnUse"
       id="clipPath898">
      <path
         id="path899"
         style="fill:none;stroke:#000000;stroke-width:0.964999;stroke-dasharray:none;stroke-opacity:1"
         d="M 231.55585,32.899632 46.064325,32.900161 V 350.30093 c 0.07482,-0.51993 0.202314,-1.00435 0.629936,-1.19425 1.153231,-0.5121 2.030254,-0.87928 2.723348,-1.09503 -2.325634,-3.24823 -0.979347,-5.9309 1.25367,-6.00323 1.180404,-0.0383 2.608824,0.65291 3.873667,2.37556 0.241557,0.32898 0.482944,0.65802 0.724503,0.98703 0.831713,1.15046 1.653897,2.30764 2.472201,3.46749 -0.07083,-0.11104 -0.14182,-0.22386 -0.182936,-0.29199 -0.01939,-0.0321 -0.03617,-0.0658 -0.05426,-0.0987 -0.330983,-0.6019 -0.07229,-1.01875 0.300757,-1.01338 0.169455,0.003 0.363255,0.0916 0.535366,0.29043 -0.09777,-0.15311 -0.05075,-0.0789 -0.143142,-0.22479 -0.385887,-0.60931 -0.114081,-1.0745 0.284218,-1.05989 0.208634,0.008 0.452112,0.14689 0.654224,0.46611 0.08867,0.14002 0.04307,0.0684 0.135909,0.21395 0.0011,0.003 0.0024,0.004 0.0036,0.006 0.02859,0.0312 0.05618,0.0684 0.08217,0.11216 0.0047,0.008 0.0093,0.0159 0.01394,0.0238 0.02066,0.0292 0.04169,0.0583 0.06253,0.0873 0.02595,0.0361 0.05166,0.0723 0.07751,0.10851 0.02558,0.0358 0.05034,0.0721 0.07338,0.10956 0.02069,0.0354 0.0413,0.0707 0.06304,0.10541 0.01598,0.0259 0.03158,0.0519 0.04702,0.0781 0.005,0.006 0.01003,0.0103 0.01498,0.0161 0.02302,0.0278 0.04512,0.0564 0.06615,0.0858 0.02683,0.0385 0.04905,0.0797 0.07131,0.12094 0.01175,0.0233 0.02492,0.0455 0.03772,0.0682 0.01093,0.0201 0.02228,0.04 0.03359,0.0599 0.0063,0.0109 0.01238,0.0212 0.0186,0.032 0.0035,0.003 0.0073,0.007 0.01085,0.01 0.0423,0.0401 0.08228,0.0825 0.113173,0.13226 0.02061,0.0334 0.04098,0.0677 0.05943,0.10234 0.01913,0.0363 0.03737,0.0728 0.05684,0.10904 0.0227,0.0446 0.04487,0.0898 0.06046,0.13745 0.01307,0.0417 0.02521,0.0844 0.02842,0.12816 0.0013,0.0167 0.0028,0.0333 0.0021,0.0501 -7.94e-4,0.0217 -0.0047,0.0435 -0.0072,0.0651 -0.0036,0.009 -0.0063,0.0183 -0.0088,0.0279 2.44e-4,0.0122 2.65e-4,0.0244 -0.0011,0.0356 0.02963,0.0625 0.05684,0.12587 0.07803,0.19175 0.04184,0.12485 0.07814,0.25101 0.113689,0.37774 0.04769,0.16754 0.09447,0.33534 0.145727,0.50178 0.02661,0.0861 0.05389,0.17201 0.08578,0.25631 0.02246,0.0652 0.04193,0.13171 0.06718,0.19587 0.351917,0.89519 -0.394621,1.30323 -0.860928,0.70744 -0.147624,0.0774 -0.345384,0.0693 -0.543637,-0.0563 0.548318,0.78145 1.09645,1.56329 1.645894,2.34405 0.595881,0.84733 1.18223,1.70699 1.813843,2.52698 2.770412,3.59675 1.029647,6.70386 -1.628323,6.23165 0.381921,0.4702 0.745766,0.91266 1.036111,1.25781 0.03448,0.041 0.06907,0.0819 0.103355,0.12247 0.280775,-0.0836 0.586594,-0.12213 0.911571,-0.108 1.011791,0.0438 2.207477,0.59164 3.395657,1.83452 1.383665,-0.42456 3.251756,0.3647 4.526857,2.90835 0.171061,0.34128 0.342331,0.68233 0.519348,1.0206 0.05866,-0.0615 0.09879,-0.084 0.13901,-0.0842 0.0475,0 0.0951,0.0308 0.173117,0.0661 0.02564,0.0254 0.05298,0.0491 0.07648,0.0765 0.05262,0.0614 0.130471,0.17684 0.17725,0.24804 0.01998,-0.008 0.0414,-0.013 0.06408,-0.0156 -0.004,-0.004 -0.0078,-0.008 -0.01188,-0.0124 -0.02913,-0.0267 -0.05949,-0.052 -0.08836,-0.0791 -0.287997,-0.26982 -0.174596,-0.55338 0.06149,-0.55346 0.09252,0 0.203676,0.043 0.317294,0.1478 0.02731,0.0251 0.05516,0.0495 0.08268,0.0744 0.03251,0.0297 0.06288,0.0625 0.0925,0.0951 0.01791,0.0206 0.03642,0.0401 0.0553,0.06 0.02405,0.0257 0.04909,0.0505 0.0739,0.0755 h 0.0011 c 0.0084,0 0.01707,-0.003 0.02585,-0.003 0.10478,-0.004 0.232278,0.0566 0.346231,0.20722 0.02246,0.0297 0.04488,0.0589 0.0677,0.0884 0.0711,0.0916 0.107583,0.17889 0.117822,0.2558 0.0048,0.008 0.0095,0.0172 0.01394,0.0259 0.02222,0.0435 0.04387,0.0875 0.06563,0.13126 0.0299,0.0599 0.05994,0.11954 0.09405,0.17725 h 5.29e-4 5.3e-4 c -1.6e-5,0 -3.7e-5,1e-4 0,0.003 0.06372,0.0855 0.127788,0.17076 0.191201,0.2563 0.0163,0.022 0.03257,0.0436 0.04858,0.0657 0.0068,0.007 0.01318,0.0151 0.01913,0.0233 0.0053,0.007 0.0097,0.0143 0.01291,0.0212 0.0071,0.0101 0.01408,0.0201 0.02119,0.03 H 413.61813 c 0.0277,-0.13062 0.0562,-0.26146 0.0852,-0.39018 -0.0934,0.1102 -0.2037,0.10618 -0.26715,0.0269 -0.11924,0.1805 -0.37335,0.0948 -0.35348,-0.22841 0.003,-0.0398 0.006,-0.0798 0.01,-0.11938 l -0.003,0.003 c -0.0439,0.023 -0.0874,0.0461 -0.13126,0.0692 -0.0196,0.0505 -0.0424,0.1143 -0.0553,0.15658 -0.004,0.0124 -0.006,0.0251 -0.009,0.0377 -0.0962,0.36949 -0.43699,0.34488 -0.41908,0.0153 -0.0204,0.007 -0.0402,0.0124 -0.0605,0.0196 -0.0265,0.009 -0.0522,0.0164 -0.0765,0.0212 -0.007,0.0132 -0.0135,0.027 -0.0201,0.0403 -0.12499,0.24831 -0.33409,0.23974 -0.39791,0.0946 -0.044,-0.0408 -0.0815,-0.10637 -0.10284,-0.19895 -0.003,0.004 -0.004,0.008 -0.006,0.0119 -0.0933,0.18214 -0.26916,0.083 -0.18034,-0.10128 0.0106,-0.0217 0.0188,-0.0439 0.0279,-0.0661 -0.008,-0.004 -0.0151,-0.01 -0.0217,-0.0161 -0.006,0.0167 -0.0103,0.0332 -0.0164,0.0496 -0.0298,0.0847 -0.0838,0.11922 -0.1297,0.11473 -0.0859,0.0786 -0.20196,0 -0.14055,-0.15606 0.003,-0.007 0.006,-0.0148 0.009,-0.0217 0.0251,-0.0636 0.051,-0.12719 0.0765,-0.19069 0.0214,-0.0538 0.0422,-0.10744 0.0625,-0.16174 0.0188,-0.0484 0.0371,-0.0972 0.0569,-0.1452 0.0278,-0.0679 0.0564,-0.13547 0.0858,-0.20259 0.0291,-0.0681 0.0577,-0.13626 0.0832,-0.20566 0.0196,-0.0544 0.0382,-0.10893 0.0563,-0.16381 0.014,-0.0439 0.0279,-0.088 0.0393,-0.13282 0.005,-0.0188 0.0106,-0.0375 0.0161,-0.0558 0.006,-0.018 0.0127,-0.0353 0.0196,-0.0527 0.007,-0.0175 0.0159,-0.0349 0.0238,-0.0517 0.006,-0.0122 0.0117,-0.0243 0.0164,-0.0362 0.0353,-0.0681 0.084,-0.0986 0.12557,-0.10025 0.0299,0 0.0569,0.0124 0.0723,0.0377 0.0198,-0.014 0.0405,-0.0209 0.06,-0.0217 0.0454,-0.003 0.0819,0.0301 0.0863,0.0847 0.0342,-0.0813 0.069,-0.16264 0.10334,-0.24392 0.0298,-0.0707 0.0758,-0.1038 0.11679,-0.1075 0.0435,-0.004 0.0804,0.0251 0.0899,0.0775 0.0539,-0.0474 0.11137,-0.0677 0.16225,-0.0661 0.12176,0.004 0.20926,0.13356 0.13798,0.31885 0.007,0.003 0.0127,0.004 0.019,0.007 0.057,-0.0917 0.1139,-0.18322 0.17105,-0.2749 0.10414,-0.16473 0.20579,-0.33182 0.32091,-0.48938 0.014,-0.0193 0.0285,-0.0383 0.0429,-0.0574 0.0848,-0.11189 0.17971,-0.1556 0.25734,-0.15192 0.13229,0.006 0.215,0.15264 0.11472,0.33589 0.0254,-0.009 0.0502,-0.0161 0.0734,-0.0164 0.16166,-0.003 0.25731,0.18982 0.077,0.40566 -0.013,0.0156 -0.0249,0.0314 -0.0377,0.047 0.0132,-0.003 0.0266,-0.005 0.0398,-0.005 0.10909,0 0.20609,0.10972 0.17621,0.30284 0.0614,-0.21683 0.12266,-0.43286 0.18294,-0.65008 0.32554,-1.10821 0.67275,-2.21068 1.03507,-3.30732 0.0902,-0.27305 0.17741,-0.54634 0.27443,-0.81698 0.28421,-0.79306 0.40404,-1.05124 0.73223,-1.83555 0.61064,-1.42549 1.29699,-2.81662 1.95596,-4.21989 0.58399,-1.24341 0.65942,-1.42031 1.23248,-2.68356 0.80153,-1.7893 1.52035,-3.61302 2.20917,-5.44825 -0.0749,0.0753 -0.15565,0.1102 -0.22945,0.11266 -0.26612,0.40431 -0.69485,0.13258 -0.46611,-0.36277 0.008,-0.0175 0.0116,-0.0265 0.0196,-0.047 0.0143,-0.0363 0.0279,-0.0728 0.0424,-0.10904 0.0651,-0.16285 0.15648,-0.38274 0.22273,-0.53795 0.0111,-0.0262 0.0222,-0.0521 0.0336,-0.078 -0.0127,-0.0428 -0.0108,-0.0989 0.0124,-0.16536 0.0185,-0.0532 0.0356,-0.10668 0.0532,-0.1602 -0.17253,0.21836 -0.39272,0.0536 -0.23876,-0.16743 -0.0365,-0.0338 -0.0613,-0.0941 -0.0589,-0.18138 0,-0.0346 0,-0.0564 0.008,-0.093 v -0.004 c -0.12933,0.0424 -0.22852,-0.0964 -0.10647,-0.27699 0.007,-0.0111 0.0164,-0.0214 0.0243,-0.0326 0.0206,-0.0303 0.0451,-0.069 0.063,-0.0992 -0.056,-0.0196 -0.11162,-0.0404 -0.15914,-0.0749 -0.0156,-0.0114 0.006,-0.0352 0.0164,-0.0553 0,-0.009 0.003,-0.0193 0.005,-0.0305 0.004,-0.0185 0.0116,-0.0367 0.0164,-0.0548 0.003,-0.008 0.005,-0.0164 0.008,-0.0244 -0.0758,0.061 -0.15433,0.0293 -0.16433,-0.0429 -0.0729,0.045 -0.16434,-0.0212 -0.13073,-0.1628 0.003,-0.0124 0.003,-0.0114 0.0124,-0.0326 0.003,-0.007 0.007,-0.0143 0.0114,-0.0212 0.007,-0.0111 0.0114,-0.022 0.0175,-0.0331 -0.013,-0.028 -0.0175,-0.0669 -0.007,-0.11625 0.003,-0.0106 0.003,-0.0188 0.006,-0.0284 -0.0645,0.0172 -0.13293,-0.045 -0.10957,-0.16846 0.003,-0.0161 0.007,-0.033 0.0124,-0.0481 0.01,-0.0322 0.0209,-0.0637 0.031,-0.0956 0.007,-0.0209 0.0143,-0.0425 0.0212,-0.063 0.006,-0.0164 0.0109,-0.0324 0.0159,-0.0486 0.007,-0.0169 0.0135,-0.0335 0.0201,-0.0501 0.0119,-0.0269 0.0243,-0.0534 0.0367,-0.0801 0.0127,-0.0269 0.0254,-0.0529 0.0372,-0.0801 0.0143,-0.0337 0.0281,-0.0679 0.0429,-0.10129 0.0235,-0.0541 0.0484,-0.10702 0.0729,-0.16073 0.0357,-0.078 0.0709,-0.15653 0.10644,-0.23461 0.0462,-0.10054 0.0929,-0.20116 0.13902,-0.30178 0.0513,-0.11184 0.10244,-0.22339 0.15451,-0.33486 0.0217,-0.0467 0.0442,-0.0934 0.0661,-0.14004 0.0326,-0.0695 0.0789,-0.10038 0.11988,-0.10232 0.0684,-0.003 0.1207,0.0744 0.0672,0.19016 -0.0217,0.0465 -0.0446,0.094 -0.0661,0.14055 -0.0262,0.0558 -0.0518,0.11104 -0.0775,0.16692 0.0225,-0.0193 0.0465,-0.0289 0.0687,-0.0294 0.0406,-0.003 0.0755,0.0254 0.0853,0.0718 0,0 0.003,8e-5 0.003,0 0.0579,-0.003 0.10517,0.0524 0.0858,0.14004 0.04,0.003 0.0781,0.0111 0.11369,0.0259 0.0243,-0.0212 0.0503,-0.0308 0.0739,-0.031 0.0598,0 0.10559,0.061 0.077,0.15195 0.019,0.0269 0.0344,0.0564 0.046,0.0894 0.0116,-0.003 0.023,-0.006 0.0341,-0.006 0.10485,-0.005 0.17645,0.11682 0.0785,0.27856 -0.0652,0.10623 -0.0308,0.05 -0.10385,0.17002 -0.0371,0.0612 -0.074,0.1221 -0.11112,0.18344 0.0122,0.003 0.0222,0.006 0.0305,0.009 0.031,-0.0509 0.0666,-0.0842 0.10231,-0.10232 v -0.003 c 0.0398,-0.11065 0.10861,-0.15936 0.17002,-0.16071 0.0897,-0.003 0.16304,0.0977 0.10488,0.2594 -0.008,0.022 -0.0164,0.0431 -0.0243,0.0651 0.0101,-0.0161 0.019,-0.0327 0.0284,-0.0491 0.0498,-0.0861 0.11213,-0.12552 0.1669,-0.1297 h 0.0201 c 0.0676,-0.0682 0.14182,-0.10168 0.21085,-0.10594 0.13105,-0.008 0.24297,0.0891 0.25527,0.25527 1.02677,-2.49555 3.42098,-1.93206 3.27269,0.26302 0.0235,-0.003 0.0477,-0.003 0.0718,-0.005 0.18476,-0.0101 0.39248,0 0.6263,0.0305 0.004,-0.009 0.008,-0.018 0.0124,-0.0269 0.17934,-0.37547 0.36211,-0.74946 0.54314,-1.12397 0.35094,-0.61005 0.56446,-1.0763 0.98597,-1.0609 0.37174,0.0135 0.90514,0.40267 1.8371,1.39835 0.53399,0.0694 0.61093,0.23201 0.48266,0.52916 0.1356,0.15232 0.11686,0.33798 0.0367,0.53745 0.7281,-1.10458 0.64108,-1.1027 3.03961,1.40713 0.22664,0.23718 -0.23868,0.61116 -0.36433,0.91417 -0.0773,0.18642 -0.28716,0.67841 -0.52401,1.23094 1.28397,0.67736 1.11366,1.68566 0.75036,2.6448 -0.0737,0.19469 -0.1546,0.38651 -0.23926,0.57672 0.0262,-0.003 0.0536,1.3e-4 0.0827,0.004 0.0109,0.003 0.0217,0.004 0.0325,0.006 l 0.003,-0.003 c 0.0652,-0.0892 0.10332,-0.34147 0.18862,-0.2713 0.2404,0.19767 0.49368,0.39129 0.74364,0.58962 0.27193,0.1297 0.53482,0.2862 0.79115,0.4563 V 32.900148 h -186.1659 c 0.61822,0.729525 0.763,1.607013 0.46922,2.403988 3.04458,0.145738 4.55212,0.184854 7.56284,0.46509 2.13159,0.198401 4.28199,0.456819 6.32468,1.127578 5.9068,1.939607 3.71684,7.425719 -2.29597,5.845122 -0.50758,-0.133422 -1.01973,-0.242644 -1.5348,-0.334346 1.31488,1.812427 0.0435,4.41317 -3.61942,4.550627 0.033,0.473453 -0.0764,0.945287 -0.32866,1.373042 1.25367,-0.0062 2.50706,-0.03043 3.76049,-0.05219 6.21615,-0.107952 6.32521,6.171497 0.10904,6.279206 -1.62526,0.02816 -3.25107,0.06056 -4.8767,0.05426 -0.5394,-0.0041 -1.0786,-0.009 -1.618,-0.01498 0.0124,0.05439 -0.0367,0.115081 -0.14571,0.113173 -0.0284,-5.29e-4 -0.0569,-7.93e-4 -0.0853,-0.0011 -0.0265,-5.29e-4 -0.0527,-7.94e-4 -0.0791,-0.0016 -0.0311,-0.0011 -0.0624,-0.0027 -0.0935,-0.0031 -0.0251,-2.65e-4 -0.0499,-2.65e-4 -0.0749,5.29e-4 -0.0233,5.29e-4 -0.0469,0.0016 -0.0703,0.0016 -0.0222,-2.65e-4 -0.0449,-0.0013 -0.0672,-0.0016 -0.0295,-5.29e-4 -0.0589,-0.0016 -0.0884,-0.0026 -0.0198,-5.29e-4 -0.04,-5.29e-4 -0.0599,-5.29e-4 h -0.0667 -0.0718 c -0.0222,0 -0.0449,5e-6 -0.0672,0 -0.0273,-8e-6 -0.0544,3.2e-5 -0.0816,0 -0.0243,-3.2e-5 -0.0486,1.98e-4 -0.0729,0 -0.0177,-1.64e-4 -0.0351,-7.94e-4 -0.0527,-0.0011 -0.0175,-1.01e-4 -0.0352,-2.65e-4 -0.0527,0.0016 -0.0228,0.0016 -0.0458,0.0035 -0.0687,0.0036 -0.0159,3e-6 -0.0317,-3e-6 -0.0475,0 -0.0127,8e-6 -0.0257,-2.9e-5 -0.0383,0 -0.0156,3.7e-5 -0.0309,-7.4e-5 -0.0465,0 -0.0254,1.24e-4 -0.0508,2.65e-4 -0.0759,0 -0.0243,-5.29e-4 -0.0488,-0.0011 -0.0729,-0.0052 v 0 c -0.10287,-0.0172 -0.14055,-0.07686 -0.12351,-0.125574 -1.37911,-0.01953 -2.7582,-0.04391 -4.13722,-0.0708 -3.58716,-0.07684 -7.17358,-0.178758 -10.75851,-0.328661 -2.26319,-0.09032 -4.52832,-0.178675 -6.7877,-0.343132 -0.005,0.04026 -0.0249,0.08465 -0.0579,0.136943 -0.0239,0.03802 -0.063,0.06417 -0.0946,0.09612 -0.0266,0.01881 -0.0717,0.05121 -0.11782,0.0832 0.002,0.01455 0.003,0.02774 0.005,0.03927 0.005,0.0011 0.0119,0.0024 0.0181,0.0036 h 5.3e-4 c 0.0737,0.01606 0.12981,0.04322 0.16898,0.07596 0.0141,-5.29e-4 0.0267,-5.29e-4 0.0398,0 h 5.2e-4 c 0.3212,0.01291 0.33122,0.358476 -0.0331,0.392742 -0.0541,0.0051 -0.10858,0.0088 -0.16278,0.01188 -0.027,7.94e-4 -0.0537,0.0021 -0.0806,0.0031 -0.0339,0.07175 -0.12547,0.130542 -0.27492,0.131775 -0.002,1.6e-5 -0.005,3e-6 -0.007,0 -0.0545,0.03856 -0.13854,0.05879 -0.2496,0.04237 -0.0308,-0.0046 -0.062,-0.0067 -0.093,-0.0083 -0.0435,-0.0021 -0.0867,-0.0026 -0.13022,-0.0031 -0.0209,1.27e-4 -0.0411,-0.0021 -0.062,-0.0031 -0.0534,0.0011 -0.10682,0.0031 -0.1602,0.0031 -0.0897,-0.0011 -0.17963,-0.0062 -0.26923,-0.01035 -0.0644,-0.0029 -0.12877,-0.0043 -0.19327,-0.0036 -0.0903,0.0021 -0.17996,0.0029 -0.27027,0.0036 -0.0947,7.93e-4 -0.18996,0.0013 -0.28474,0.0016 -0.0377,5.29e-4 -0.0755,-5.29e-4 -0.11317,-0.0016 -0.20415,-0.0043 -0.29905,-0.114393 -0.2868,-0.217041 -0.0145,-0.09542 0.0641,-0.197178 0.23306,-0.213942 0.0323,-0.04537 0.11234,-0.05994 0.16123,-0.06718 0.008,-7.93e-4 0.0159,-0.0024 0.0238,-0.0031 0.005,-0.02278 0.009,-0.04639 0.0119,-0.06976 -0.008,-0.05961 -0.0163,-0.147616 -0.0388,-0.276468 v -0.0031 -0.0031 l 5.3e-4,-5.29e-4 h 5.3e-4 5.3e-4 l 5.3e-4,-5.29e-4 5.3e-4,-5.29e-4 h 5.2e-4 c 0.007,-0.0011 0.0217,0.0042 0.0295,0.0047 0.0283,0.0016 0.0565,0.0036 0.0847,0.0057 V 53.983 l 5.3e-4,-5.29e-4 c 0.0361,-0.049 0.12202,-2.65e-4 0.18293,5.29e-4 0.0968,-0.0021 0.19336,-0.0063 0.28991,-0.01241 -0.0518,-0.07036 -0.0202,-0.143907 0.10284,-0.245462 0.0144,-0.01188 0.0313,-0.01987 0.0491,-0.02585 -0.34504,-0.03124 -0.68993,-0.0643 -1.03456,-0.10025 -0.83914,-0.0996 -1.30823,-0.144124 -2.12339,-0.280088 -0.80613,-0.134461 -1.61112,-0.307806 -2.34921,-0.670759 -4.63759,-2.280531 3.51023,-1.713383 3.78633,-3.898987 -0.49431,-0.465947 -0.77966,-1.025348 -0.85473,-1.599904 -0.0396,-0.03894 -0.0804,-0.07842 -0.12299,-0.118337 -0.003,-0.003 -0.0116,-0.0085 -0.0145,-0.01138 l -5.3e-4,-5.29e-4 h -5.3e-4 v -5.3e-4 h 5.3e-4 5.3e-4 5.3e-4 c 0.034,0.0072 0.0657,0.02349 0.0997,0.03101 0.009,0.0021 0.0179,0.0038 0.0269,0.0057 -0.007,-0.08293 -0.01,-0.165942 -0.009,-0.249082 -0.0339,2.09e-4 -0.0679,-2.64e-4 -0.1018,5.29e-4 -6.217,0.04012 -6.25934,-6.240187 -0.0408,-6.280237 2.26822,-0.0146 4.53643,-0.02138 6.80475,-0.02376 -1.91448,-1.03465 -2.20591,-3.028846 -0.90847,-4.338754 -0.71789,-0.996912 -0.65391,-2.28429 0.25476,-3.2644 z m 11.51816,43.171526 h 5.3e-4 c 0.22157,0.01288 0.44211,0.04244 0.65991,0.09612 0.35942,0.08859 0.61308,0.176345 0.87592,0.464056 0.13487,0.147643 0.21464,0.337161 0.32194,0.505912 0.065,0.196596 0.14532,0.389102 0.19482,0.590143 0.10013,0.406355 0.13293,0.859433 0.15193,1.275376 0.0144,0.320371 0.0141,0.793483 0.002,1.120344 -0.005,0.149357 -0.0163,0.298315 -0.0253,0.447519 -0.0546,0.24434 -0.082,0.57859 -0.31265,0.749308 -0.28113,0.208044 -0.55973,0.242149 -0.86299,0.229444 -0.0656,0.406918 -0.13936,0.804886 -0.14728,0.851111 -0.0295,0.159018 -0.0596,0.318191 -0.0904,0.476973 0.28168,0.08313 0.5851,0.317682 0.83561,0.739489 0.0416,0.07005 0.0236,0.03869 0.0915,0.165364 0.13228,0.24692 0.19975,0.37859 0.34003,0.635622 0.15312,0.280535 0.24072,0.43583 0.36742,0.659389 0.1128,-0.08418 0.22852,-0.164663 0.34623,-0.241329 0.0645,-0.04199 0.12336,-0.06014 0.17312,-0.06098 0.1778,-0.003 0.25443,0.215683 0.008,0.366387 -0.1194,0.07832 -0.23693,0.160517 -0.35089,0.247012 0.25861,0.45271 0.2047,0.359778 0.36536,0.636654 0.39982,-0.07836 0.79396,-0.189534 1.18339,-0.308507 0.11294,-0.03451 0.23308,-0.176718 0.33486,-0.11679 0.19454,0.114557 0.19511,0.223216 0.12196,0.314193 -0.001,0.0072 -0.003,0.01426 -0.005,0.02119 -0.0183,0.05211 -0.0665,0.07527 -0.12454,0.08785 -0.12876,0.08172 -0.28361,0.134591 -0.29766,0.14211 -0.23574,0.152898 -0.48061,0.269798 -0.66094,0.467672 0.19398,0.256048 0.37677,0.569288 0.47026,0.715204 0.051,0.0852 0.10124,0.170669 0.15141,0.256312 0.0952,0.04168 0.13182,0.05575 0.13849,0.05633 h 5.3e-4 5.3e-4 5.3e-4 c -0.0125,-0.01468 -0.3515,-0.17753 0.42116,0.202057 0.0721,0.105106 0.21401,0.187799 0.21601,0.315225 0.002,0.165579 -0.0912,0.323948 -0.18965,0.459404 0.1935,0.348154 0.38478,0.697547 0.57774,1.045932 0.0397,0.07161 0.0819,0.150246 0.12661,0.232542 0.10644,0.01487 0.23643,0.03345 0.39532,0.05685 0.0272,0.004 0.062,0.0072 0.10284,0.01035 0.0161,-0.06339 0.0308,-0.123129 0.045,-0.182419 -0.008,-0.168971 -0.0305,-0.348811 0.0946,-0.415478 0.001,-0.0043 0.002,-0.0086 0.003,-0.01291 0.0223,-0.10283 -0.036,-0.329226 0.0672,-0.308507 0.20751,0.04167 0.42178,0.100844 0.62062,0.188101 0.2011,0.0031 0.40386,0.03369 0.59429,0.07597 0.0964,0.0214 -0.0187,0.178197 -0.0594,0.287319 0.001,0.0011 0.002,0.0021 0.003,0.0031 0.13376,0.143942 -0.072,0.386435 -0.10387,0.580327 -0.0705,0.428678 -0.13244,0.858419 -0.19017,1.288812 0.0851,0.02835 0.19196,0.05964 0.35192,0.103867 0.27445,0.07589 0.56081,0.107395 0.83095,0.197406 0.23199,0.07729 0.52009,0.107728 0.66818,0.302307 0.40505,0.532255 -0.18981,1.099397 -0.4191,1.457275 -0.27776,0.595395 -0.54158,0.935183 -0.48009,1.607653 0.16717,0.318183 0.33293,0.637167 0.49663,0.957049 0.0372,0.07313 0.0725,0.146679 0.10644,0.221173 0.18775,0.216937 0.396,0.437883 0.51469,0.567925 0.10089,0.110511 0.11176,0.217392 0.0713,0.283702 0.20757,0.315648 0.40426,0.638181 0.58756,0.968934 0.079,0.138157 0.15489,0.278982 0.2403,0.413414 0.0111,0.01754 0.0246,0.03431 0.0362,0.05168 0.003,0.0044 0.0101,0.01331 0.013,0.0181 8e-5,1.32e-4 0,0.0019 0,0.0021 v 5.29e-4 5.29e-4 5.29e-4 0 0 0 -5.29e-4 c -0.0487,-0.01942 -0.0933,-0.0479 -0.14004,-0.07183 -0.0101,-0.0016 -0.0191,-0.0035 -0.0279,-0.0052 0.0615,0.128153 0.0998,0.248607 0.11835,0.359666 0.0503,-0.01651 0.1233,-0.03224 0.22633,-0.05168 0.0414,-0.0078 0.0612,0.05869 0.0894,0.08992 0.043,0.04756 0.089,0.105161 0.13229,0.160713 -0.0251,-0.06699 -0.0505,-0.133855 -0.0754,-0.201022 -0.008,-0.02125 -0.0159,-0.04264 -0.0228,-0.06408 -0.003,-0.0089 -0.0138,-0.02199 -0.0146,-0.02997 v -0.0011 -5.29e-4 -0.0011 -5.3e-4 -5.29e-4 -5.29e-4 -5.29e-4 0 -5.29e-4 -5.29e-4 0 -0.0016 0 c 0.098,-0.03967 0.20212,-0.06063 0.30438,-0.08785 0.0114,-0.0047 0.023,-0.009 0.0346,-0.01344 v 0 0 0 5.29e-4 0 5.29e-4 0 5.29e-4 5.29e-4 5.29e-4 5.3e-4 5.29e-4 5.29e-4 5.29e-4 5.29e-4 5.29e-4 5.3e-4 c 0.0812,0.178951 0.15594,0.360611 0.22997,0.542602 0.0645,-0.02746 0.0713,-0.01873 0.0935,0.02016 0.003,-2.62e-4 0.003,-5.29e-4 0.005,-5.29e-4 0.0103,-5.29e-4 0.0209,0.0031 0.03,0.01035 0.005,-0.0026 0.01,-0.0047 0.0156,-0.0052 0.0143,-0.0013 0.0296,0.0047 0.0424,0.0186 0.005,-7.94e-4 0.009,-0.0019 0.0146,-0.0021 0.0945,-0.0067 0.19026,0.08628 0.18037,0.272849 0,0.01066 0,0.02138 -0.003,0.03204 0.0238,0.01429 0.0464,0.0316 0.0677,0.04806 0.05,0.03865 0.0665,0.155768 0.0765,0.214458 0.008,0.05036 0.008,0.09457 0.003,0.132283 v 5.3e-4 5.3e-4 5.3e-4 0 5.3e-4 0 5.3e-4 5.3e-4 5.3e-4 5.3e-4 c 0.005,0.0117 0.01,0.0288 0.009,0.0382 v 5.3e-4 c 0.0448,0.0182 0.0428,0.0813 -0.0326,0.10645 -0.0458,0.0153 -0.0916,0.0305 -0.13745,0.0455 2.6e-4,0.004 0,0.008 0,0.0119 0.0177,0.0583 0.0243,0.11794 0.0185,0.17983 -0.0146,2.4e-4 -0.029,5.2e-4 -0.0434,0.003 -0.003,0.0371 -0.006,0.0742 -0.0114,0.11369 -0.004,0.0289 -0.005,0.0593 -0.0164,0.0863 -0.009,0.021 -0.0198,0.0398 -0.0331,0.0501 0.18026,0.26648 -0.0939,0.4594 -0.30179,0.18862 -0.0931,-0.12126 -0.17748,-0.24791 -0.25889,-0.37724 -0.0702,-0.11606 -0.13954,-0.2329 -0.20725,-0.35037 -0.0373,0.049 -0.0738,0.0984 -0.11007,0.14831 -0.0971,0.1302 -0.19428,0.26062 -0.29559,0.38758 -0.0921,0.11559 -0.18301,0.23207 -0.2749,0.34778 -0.38293,0.48185 -0.86511,0.09 -0.48266,-0.39222 0.0648,-0.0817 0.12915,-0.16368 0.19379,-0.24547 -0.0201,0.007 -0.0401,0.0142 -0.0605,0.0207 -0.26702,0.0764 -0.53523,0.11986 -0.80875,0.0393 -0.2018,-0.0915 -0.25808,-0.0948 -0.4191,-0.26562 -0.20402,-0.216446 -0.27938,-0.509212 -0.32917,-0.792716 -0.0493,-0.355161 -0.10467,-0.694344 -0.25579,-1.024229 -0.0693,-0.176061 -0.0825,-0.21622 -0.15864,-0.389638 -0.0183,-0.04153 -0.0408,-0.08124 -0.0584,-0.122992 -0.16456,-0.0016 -0.32846,-0.02373 -0.47387,-0.114721 -0.3747,-0.23445 -0.46971,-0.531344 -0.51832,-0.934828 -0.0476,-0.299585 -0.0952,-0.597792 -0.15864,-0.894519 -0.0116,-0.05409 -0.026,-0.107474 -0.0367,-0.161745 -0.003,-0.01934 -8e-4,-0.04026 -0.007,-0.05891 -0.006,-0.01664 -0.0189,-0.02954 -0.0279,-0.04444 -0.27701,-0.210566 -0.37332,-0.233814 -0.52658,-0.581876 -0.1055,-0.240406 -0.13378,-0.506402 -0.13487,-0.767395 -0.26529,-0.385162 -0.52525,-0.774028 -0.78238,-1.164786 -0.52088,-0.785008 -0.9896,-1.60233 -1.45108,-2.423107 -0.32886,-0.602382 -0.65955,-1.204 -0.9927,-1.804025 -0.0263,0.03196 -0.0571,0.05896 -0.0951,0.07751 -0.30515,0.148619 -0.66645,0.24444 -1.00097,0.187071 -0.27308,-0.04683 -0.33488,-0.612828 -0.37259,-0.795817 -0.0312,-0.754454 -0.0527,-1.50985 -0.0966,-2.263947 -0.006,-0.01098 -0.0121,-0.02209 -0.0181,-0.03307 -0.004,0.0092 -0.007,0.01778 -0.0119,0.02585 -0.0839,0.197514 -0.46749,1.104768 -0.56069,1.310516 -0.0771,0.170262 -0.0677,0.438867 -0.24237,0.505394 -1.0043,0.382487 -1.28836,0.371001 -1.29036,-0.313158 -2.6e-4,-0.111141 0.0337,-0.219853 0.0506,-0.329695 0.24865,-1.182722 0.51779,-2.360996 0.76532,-3.543972 -0.009,-0.01421 -0.0181,-0.02868 -0.0269,-0.04289 -0.25908,-0.405667 -0.49938,-0.822465 -0.74259,-1.237649 -0.006,-0.0093 -0.0118,-0.01855 -0.0176,-0.02791 -0.0946,0.06689 -0.19311,0.119153 -0.30386,0.115239 -0.31937,-0.01122 -0.64779,-0.148063 -0.89038,-0.356052 -0.1214,-0.10409 -0.0517,-0.316039 -0.0775,-0.473871 0.0272,-0.134562 0.0564,-0.268378 0.0873,-0.402043 -0.18219,0.0404 -0.37738,-0.132672 -0.33797,-0.49041 0.0266,-0.241427 0.0847,-0.476414 0.15038,-0.709517 -0.13067,0.179924 -0.18507,0.165295 -0.42013,-0.05013 -0.12513,-0.03669 -0.23612,-0.123132 -0.32711,-0.216524 -0.0458,-0.04664 -0.008,-0.274794 0.002,-0.342614 0.0201,-0.122656 0.0454,-0.24487 0.0739,-0.365872 -0.2325,0.18096 -0.54227,-0.03218 -0.41239,-0.480589 0.0529,-0.182679 0.10521,-0.365606 0.16331,-0.546737 0.0408,-0.132731 0.0978,-0.258993 0.16484,-0.380339 0.0551,-0.09115 0.12219,-0.174649 0.18861,-0.257865 0.006,-0.02082 0.0133,-0.04224 0.0217,-0.06408 0.0465,-0.1202 0.096,-0.239229 0.14572,-0.358119 0.0964,-0.230688 0.24828,-0.328274 0.37879,-0.324527 0.0378,0.0011 0.0736,0.01064 0.10594,0.0279 0.028,-0.0077 0.0557,-0.0113 0.0816,-0.01138 0.11292,-2.27e-4 0.20547,0.06748 0.23978,0.177769 0.12258,-0.131043 0.25698,-0.249674 0.39584,-0.363286 0.13183,-0.101958 0.2733,-0.19298 0.42995,-0.252699 0.19067,-0.07269 0.37198,-0.112262 0.57412,-0.144176 0.11641,-0.01839 0.23388,-0.02823 0.35088,-0.04237 0.22272,-0.01339 0.44557,-0.01352 0.66714,-0.0047 z m -0.0202,0.620633 c -0.18987,-0.01159 -0.38099,-0.01453 -0.57464,0.0011 -0.28179,0.03257 -0.59915,0.05412 -0.85679,0.186552 -0.0719,0.03694 -0.11409,0.07119 -0.17829,0.117822 -0.0158,0.01281 -0.0314,0.02577 -0.047,0.03876 0.0736,0.01064 0.1424,0.04295 0.19068,0.104902 0.146,0.187317 0.10206,0.264205 0.062,0.4377 -0.007,0.01982 -0.0152,0.03905 -0.0233,0.05839 0.0377,0.01976 0.046,0.04433 0.0377,0.08527 0.19319,-0.342805 0.44697,-0.498827 0.67231,-0.510564 0.41269,-0.01836 0.72754,0.449178 0.39533,1.143082 -0.22681,0.47375 -0.41143,0.964319 -0.5855,1.459344 -0.007,0.02011 -0.0133,0.03982 -0.0201,0.05994 0.0536,0.134167 0.10684,0.268803 0.1602,0.403074 0.0282,-0.0236 0.0552,-0.04649 0.0811,-0.06821 0.13167,-0.108307 0.50763,-0.446318 0.69556,-0.490408 0.20095,-0.04715 0.46012,-0.152527 0.61857,-0.01963 0.27464,0.229272 0.41473,0.602694 0.49713,0.950846 0.01,0.04098 0.004,0.145407 -0.0114,0.284221 0.0223,0.0016 0.0444,0.0038 0.0667,0.0057 0.068,0.0056 0.13962,0.03952 0.20412,0.0181 0.15394,-0.05298 0.17187,-0.324787 0.19637,-0.422196 0.008,-0.140782 0.0198,-0.281273 0.0248,-0.422198 0.0113,-0.314243 0.0121,-0.758005 -0.001,-1.067117 -0.0161,-0.378987 -0.0421,-0.759556 -0.12455,-1.131197 -0.0348,-0.156835 -0.0921,-0.307539 -0.13797,-0.461471 -0.12688,-0.244782 -0.16336,-0.411506 -0.41445,-0.552939 -0.11013,-0.06203 -0.2368,-0.08913 -0.35915,-0.120923 -0.18901,-0.04911 -0.37802,-0.0757 -0.56792,-0.08733 z m -1.58905,0.887801 v 5.29e-4 c -0.001,0.0013 -0.004,0.0046 -0.007,0.0098 0.002,2.65e-4 0.004,0.0011 0.006,0.0016 0.001,-0.0048 0.002,-0.0089 0.002,-0.01085 v -5.29e-4 -5.29e-4 h -5.3e-4 z m 1.3746,3.856096 c -0.0157,0.01312 -0.0318,0.02659 -0.0476,0.03979 0.01,0.02193 0.0202,0.04336 0.03,0.0646 0.006,-0.03472 0.0118,-0.06964 0.0176,-0.104386 z m 3.55378,4.873088 c -0.0324,0.0078 -0.065,0.0154 -0.0971,0.02273 0.0131,0.01064 0.0264,0.02193 0.0398,0.0341 0.0187,-0.01963 0.0378,-0.03852 0.0574,-0.05684 z m 1.1033,1.822627 c 0.0479,0.08442 0.0952,0.169077 0.14262,0.253733 0.01,-0.0081 0.0176,-0.01789 0.0233,-0.02998 0.0256,-0.05622 -0.0434,-0.115763 -0.0651,-0.173633 -0.0337,-0.01659 -0.0671,-0.03332 -0.10077,-0.05012 z m 1.20612,2.174544 c 0.042,0.07165 0.0854,0.142333 0.12919,0.210323 0.0182,-0.06143 0.0369,-0.122672 0.0553,-0.183968 -0.0179,-0.0024 -0.0355,-0.0046 -0.0532,-0.0072 -0.0461,-0.0068 -0.0899,-0.0131 -0.13126,-0.01913 z m 1.30742,1.538925 c -0.039,0.300792 -0.0765,0.601777 -0.11421,0.902788 -0.01,0.08375 -0.0287,0.243255 -0.0501,0.427879 0.30207,0.445955 0.57536,0.910738 0.84128,1.379246 0.0812,-0.418364 0.28845,-0.740733 0.5085,-1.206645 0.14571,-0.198263 0.30988,-0.384241 0.4372,-0.594797 0.0626,-0.103521 0.20124,-0.243522 0.12763,-0.339513 -0.13485,-0.175834 -0.39274,-0.210278 -0.60306,-0.280088 -0.2631,-0.08733 -0.75191,-0.159136 -1.14722,-0.28887 z m 4.0039,7.447606 v 5.29e-4 5.29e-4 0 -5.29e-4 z M 97.518034,324.39865 c 0.120105,0.003 0.240583,0.004 0.360701,0.006 0.170008,0.003 0.340016,0.006 0.510045,0.007 0.05365,2.1e-4 0.111617,-1.3e-4 0.165365,0 0.04884,0 0.09754,0.003 0.146246,0.004 0.02355,0 0.04716,-1.3e-4 0.0708,0 0.0349,-1e-4 0.07,0 0.104902,0 h 0.04289 c 0.01389,0 0.02806,0.003 0.04186,0.004 0.09744,0.0132 0.117621,0.0808 0.07545,0.11885 -0.0085,0.0249 -0.03478,0.0456 -0.077,0.0496 0.01355,0.0143 0.01974,0.0304 0.01913,0.046 0.0038,0.003 0.0072,0.004 0.01085,0.007 h 5.29e-4 c 0.03349,0.0228 0.05152,0.0485 0.05736,0.0718 0.546783,0.13859 0.479065,0.77782 -0.238747,0.80047 h -0.03979 c 0.116133,0.0793 0.227962,0.16526 0.330729,0.26146 0.325522,0.30475 0.304014,0.62119 0.120406,0.75552 0.268738,0.56205 0.336024,1.20943 0.266134,1.82623 -0.04762,0.42032 -0.136009,0.64474 -0.258384,1.03301 -0.108868,0.26419 -0.237882,0.60598 -0.386538,0.85371 -0.561496,0.9357 -1.313238,1.7268 -2.046388,2.52801 2.577963,2.85848 1.844789,2.65351 -0.159162,4.5439 -0.485241,0.12973 -0.963137,0.29094 -1.455725,0.38913 -0.201684,0.0402 -0.409371,0.0778 -0.621667,0.11265 0.695645,0.24906 1.394952,0.48718 2.084109,0.75396 3.160086,1.22333 3.090225,3.84257 1.123445,4.52946 0.199975,1.27489 -0.989526,2.63935 -3.521747,2.56159 -2.176722,-0.0669 -2.604979,-0.0676 -4.759918,-0.18087 -0.364167,-0.019 -0.728567,-0.0385 -1.092954,-0.0605 -0.492225,0.49313 -1.039405,0.74358 -1.558562,0.78393 0.01222,0.0509 0.0087,0.10713 0.0036,0.15915 h -5.29e-4 c -4.5e-5,0 0,0 0,0.003 -1.8e-5,5e-5 -2.64e-4,0.003 -5.29e-4,0.003 h -5.29e-4 -5.29e-4 -5.29e-4 c -0.0046,0.003 -0.01368,0.003 -0.02273,0.003 1.93e-4,0.0286 -0.007,0.0782 -0.01035,0.1638 h -5.29e-4 -5.3e-4 -5.29e-4 -5.29e-4 -5.29e-4 -5.29e-4 c -0.0067,0.003 -0.02172,0 -0.02997,0.003 -0.02532,0.005 -0.05059,0.009 -0.07596,0.014 -0.09388,0.0169 -0.187637,0.0331 -0.282155,0.046 h -0.0057 -5.29e-4 -5.29e-4 -5.3e-4 -5.29e-4 c -0.01746,0.0383 -0.06627,0.0694 -0.146243,0.0682 -0.01987,-2.1e-4 -0.04008,0 -0.05994,0 -0.05065,0.003 -0.101264,0 -0.151929,0 -0.06269,0 -0.125423,-10e-5 -0.188103,-0.003 -0.02122,0 -0.08872,-0.003 -0.109553,-0.003 -0.132067,-0.004 -0.264263,-0.006 -0.396359,-0.008 -0.142121,-0.003 -0.284308,-0.008 -0.426331,-0.014 -0.06047,-0.003 -0.120933,-0.004 -0.181383,-0.007 -0.204414,-0.009 -0.195109,-0.21566 0.0093,-0.20669 0.04725,0.003 0.09431,0.004 0.141595,0.006 0.01553,-0.0259 0.04762,-0.0452 0.09302,-0.0496 -0.01177,0 -0.02299,-0.005 -0.03462,-0.007 v 0.003 c -0.200329,-0.0417 -0.142491,-0.22709 0.05994,-0.1974 0.0045,0 0.0089,0.003 0.01344,0.003 0.02956,0.003 0.07303,0.005 0.107487,0.007 -0.04955,-0.069 -0.09645,-0.14809 -0.13901,-0.23824 -0.0034,-0.007 -0.0052,-0.0151 -0.0098,-0.0212 -0.0063,-0.009 -0.01635,-0.0154 -0.02273,-0.0243 -0.02824,-0.0393 -0.05417,-0.0797 -0.08113,-0.11989 -0.115168,-0.17155 -0.09638,-0.1438 -0.210841,-0.31988 -0.103778,-0.15967 -0.163849,-0.31049 -0.189135,-0.44648 -0.07209,-0.0135 -0.144283,-0.027 -0.216524,-0.0398 -4.273971,-0.7589 -3.641807,-4.76803 0.218074,-4.64415 0.257324,0.008 0.529418,0.0341 0.814936,0.0811 0.14012,0.0233 0.279373,0.0514 0.420131,0.0703 0.06132,0.008 0.122603,0.0164 0.183968,0.0243 0.02098,-0.0307 0.04222,-0.0615 0.06356,-0.092 0.182216,-0.25773 0.36313,-0.51625 0.550873,-0.76999 -0.09482,-0.0398 -0.189511,-0.0804 -0.284223,-0.12038 -0.286087,-0.12094 -0.582301,-0.22217 -0.855761,-0.36949 -0.292267,-0.1574 -0.791784,-0.21204 -0.835607,-0.54108 -0.174162,-1.30778 0.158515,-2.63421 0.23771,-3.95115 0.624482,-0.2114 1.232228,-0.47998 1.873271,-0.63408 0.363746,-0.0874 0.73696,-0.12276 1.110527,-0.15658 -0.116525,-0.80991 0.330185,-1.64867 0.700734,-2.38537 0.205234,-0.40812 0.668999,-0.62429 1.029393,-0.90488 0.323236,-0.25172 1.23435,-0.79801 1.61644,-1.03198 0.06725,-0.0451 0.135533,-0.0883 0.203605,-0.13229 -0.01791,-0.27297 -0.02114,-0.54658 -0.0052,-0.82061 0.0063,-0.10623 0.06742,-0.18121 0.156062,-0.24029 -0.01601,-0.0401 -0.03233,-0.0798 -0.04909,-0.11938 0.158826,-0.44807 0.27129,-0.9158 0.476459,-1.34461 0.08438,-0.17637 0.246271,-0.30425 0.380336,-0.44649 0.282292,-0.29972 0.633722,-0.53543 0.990121,-0.73535 0.107114,-0.0601 0.220186,-0.1093 0.330213,-0.16383 0.404368,-0.18669 0.820976,-0.34671 1.252119,-0.4599 0.248389,-0.0652 0.356228,-0.082 0.59893,-0.12817 0.322829,-0.0489 0.653449,-0.0678 0.982369,-0.0532 0.180218,0.008 0.359812,0.0262 0.537435,0.0558 0.02646,-0.0858 0.07794,-0.16568 0.139009,-0.23045 0.102219,-0.10822 0.271542,-0.11118 0.406694,-0.11216 h 0.08837 c -0.02307,-0.0217 -0.02738,-0.051 -0.01394,-0.0744 h -0.0646 c -0.144624,-0.003 -0.142288,-0.14922 0.0026,-0.14623 z m 0.144177,0.41288 -5.3e-4,0.003 h 5.3e-4 c 0.0041,0.006 0.01016,0.009 0.0155,0.0135 -7.9e-5,-8e-5 -5.29e-4,-0.003 -5.29e-4,-0.003 h -5.29e-4 c -0.0035,-0.003 -0.01212,-0.0106 -0.01447,-0.0124 z m -4.408001,2.57916 c -0.02072,0.0284 -0.0416,0.0571 -0.06201,0.0858 0.03571,-0.0206 0.07114,-0.0419 0.105937,-0.0641 h 5.29e-4 5.29e-4 5.29e-4 5.3e-4 c -0.0052,-0.009 -0.02714,-0.0201 -0.03927,-0.0185 v -0.003 c -0.0016,1.8e-4 -0.003,0 -0.0041,0 h -5.29e-4 -5.29e-4 -5.29e-4 -5.3e-4 z m -1.695503,1.85415 c -0.02977,0.004 -0.161076,0.0629 -0.187068,0.11059 -0.0084,0.0154 -0.01656,0.0311 -0.02532,0.0465 0.07125,-0.0465 0.141623,-0.0943 0.209288,-0.14574 0.0045,-0.003 0.0071,-0.006 0.0083,-0.008 h -5.29e-4 c -0.0011,-1.8e-4 -0.0029,-2.1e-4 -0.0047,0 z m -0.245981,0.215 c -0.236831,0.39944 -0.5643,0.796 -0.54932,1.25158 0.0087,0.26289 0.0791,0.51718 0.181386,0.76327 0.03533,0.0193 0.07864,0.0427 0.131257,0.0713 0.193521,0.0259 0.349692,0.0466 0.47594,0.0636 0.02495,-0.0284 0.04991,-0.0564 0.07493,-0.0847 -0.129045,-0.68752 -0.265909,-1.3748 -0.314193,-2.06499 z m -0.35915,2.03605 c 0.0734,0.17314 0.162578,0.3425 0.256831,0.50797 0.05991,-0.0701 0.119864,-0.14018 0.180353,-0.20982 -0.17204,-0.12432 -0.331115,-0.22939 -0.437184,-0.29815 z m -3.665927,3.34086 v 0 0.003 0.003 c -0.02204,2.1e-4 -0.05164,0.008 -0.05943,0.0156 h -5.29e-4 v 0 c -1.75e-4,0 -7.94e-4,0.003 -0.0011,0.003 h 5.29e-4 5.29e-4 5.29e-4 5.29e-4 5.3e-4 5.29e-4 5.29e-4 c 0.02976,0.0148 0.05983,0.0297 0.08992,0.0439 -0.0021,-0.019 -0.005,-0.0393 -0.0072,-0.0584 h -5.29e-4 c -4.5e-5,0 0,0 0,-0.003 h -5.29e-4 -5.29e-4 -5.29e-4 -5.3e-4 l -5.29e-4,-0.003 c -0.0046,-0.004 -0.0131,-0.005 -0.02222,-0.005 z m 282.411181,9.90172 c 0.0434,0 0.0935,0.0313 0.12557,0.108 0.0323,0.0772 0.0649,0.15441 0.0997,0.23048 0.0111,0.0233 0.022,0.0466 0.0331,0.0698 0.0238,0.0494 0.0393,0.0802 0.0646,0.12816 0.0159,0.0302 0.0322,0.0599 0.0501,0.0889 0.0416,0.0668 0.041,0.12387 0.018,0.15917 0.018,0.0259 0.0356,0.052 0.0532,0.078 0.029,0.0427 0.04,0.0599 0.0682,0.10284 0.0624,0.0963 0.122,0.19436 0.1814,0.29247 0.0328,0.0543 0.0169,0.0281 0.0481,0.0796 0.0961,0.15875 -0.0399,0.26154 -0.14521,0.1488 -0.0415,0.004 -0.0931,-0.0206 -0.13488,-0.0868 -0.0156,-0.0246 -0.007,-0.0114 -0.0243,-0.0388 -0.0413,-0.0658 -0.0835,-0.13115 -0.12557,-0.19637 -0.0601,-0.093 -0.11951,-0.18637 -0.17931,-0.27956 -0.0715,-0.11086 -0.14264,-0.22214 -0.21757,-0.33073 -0.0336,-0.0471 -0.067,-0.0947 -0.10541,-0.13798 -0.0114,-0.0124 -0.0227,-0.0246 -0.0346,-0.0367 -0.009,-0.0101 -0.019,-0.0193 -0.0279,-0.0284 -0.0114,-0.0114 -0.0233,-0.023 -0.0346,-0.0346 -0.0987,-0.0999 -0.0591,-0.19725 0.0227,-0.20156 0.0148,-0.018 0.0361,-0.0276 0.0605,-0.0279 0.0236,0 0.0503,0.008 0.076,0.0279 0.004,-0.003 0.008,-0.005 0.0124,-0.008 0.0114,-0.007 0.022,-0.0124 0.0326,-0.0164 0.005,-0.0552 0.0409,-0.0882 0.0832,-0.0894 z m 60.87845,2.6448 c -0.10607,0.17428 -0.21227,0.34785 -0.26612,0.50953 -0.003,0.007 -0.005,0.0148 -0.008,0.0222 0.0906,-0.1777 0.18251,-0.3547 0.2744,-0.53176 z m -9.01287,0.21913 -0.003,0.003 z m -0.003,0.005 c -0.005,0.008 -0.009,0.0164 -0.0135,0.0249 0.005,-0.007 0.009,-0.0145 0.0135,-0.0217 z m -363.220884,0.1194 h 5.29e-4 z m 0.272336,0.41495 c 0.083,0.13044 0.195813,0.30618 0.236162,0.36899 -0.02215,-0.0403 -0.04538,-0.0799 -0.06977,-0.11888 -0.0557,-0.0831 -0.11127,-0.16658 -0.166396,-0.25011 z m 375.084098,0.41135 c -0.0582,0.11001 -0.11621,0.22034 -0.17365,0.33073 0.0815,0.0838 0.096,0.014 0.17365,-0.33073 z m -386.744368,3.50988 -5.29e-4,0.003 c -4.5e-5,0 0,0.003 0,0.003 -0.009,0.0316 0.04694,0.26159 0.124542,0.2713 0.0054,0 0.01061,0.003 0.01601,0.003 -0.03952,-0.089 -0.07953,-0.17793 -0.126605,-0.26302 -0.0036,-0.006 -0.0065,-0.0106 -0.0088,-0.0124 h -5.29e-4 -5.29e-4 -5.29e-4 -5.29e-4 l -5.29e-4,-0.003 h -5.3e-4 -5.29e-4 -5.29e-4 z m 25.415502,18.46294 c 0.01834,0.0316 0.03818,0.065 0.05943,0.10129 h 5.29e-4 0.01138 c -0.024,-0.0336 -0.04739,-0.0666 -0.07131,-0.10129 z" />
    </clipPath>
    <clipPath
       clipPathUnits="userSpaceOnUse"
       id="clipPath901">
      <path
         id="path902"
         style="fill:none;stroke:#000000;stroke-width:0.964999;stroke-dasharray:none;stroke-opacity:1"
         d="M 84.559652,75.954368 V 336.67436 c 0.07137,-0.66791 0.176427,-1.33731 0.216522,-2.004 0.624483,-0.21141 1.232225,-0.48004 1.873271,-0.63408 0.363747,-0.0874 0.73696,-0.12282 1.110528,-0.15658 -0.116525,-0.80999 0.330184,-1.64864 0.700733,-2.38538 0.205235,-0.40809 0.668999,-0.62423 1.029393,-0.90484 0.323236,-0.25173 1.23435,-0.79801 1.61644,-1.03198 0.06725,-0.0451 0.135536,-0.0883 0.203605,-0.1323 -0.01791,-0.27297 -0.02109,-0.54655 -0.0052,-0.82063 0.0063,-0.1062 0.06742,-0.18118 0.156062,-0.24029 -0.01601,-0.0401 -0.03232,-0.0797 -0.04909,-0.11938 0.158827,-0.44805 0.271291,-0.91578 0.476459,-1.34461 0.08438,-0.17638 0.246272,-0.30417 0.380336,-0.44649 0.282292,-0.29967 0.633722,-0.53544 0.990121,-0.73536 0.107114,-0.0601 0.220178,-0.1093 0.330213,-0.1638 0.40436,-0.18672 0.820979,-0.34618 1.25212,-0.45942 0.248391,-0.0652 0.356227,-0.082 0.598929,-0.12814 0.322829,-0.0489 0.65345,-0.0689 0.982369,-0.0543 0.179819,0.008 0.359164,0.0262 0.536403,0.0558 0.02609,-0.0873 0.07802,-0.16883 0.140041,-0.23463 0.102219,-0.10819 0.271542,-0.11115 0.406694,-0.11213 h 0.08837 c -0.02307,-0.0217 -0.0274,-0.051 -0.01394,-0.0744 h -0.0646 c -0.144624,-0.003 -0.142319,-0.14922 0.0026,-0.14623 v -0.004 c 0.120105,0.003 0.240583,0.004 0.360701,0.006 0.170008,0.003 0.340016,0.006 0.510046,0.007 0.05365,2.1e-4 0.111617,-8e-5 0.165364,0 0.04884,0 0.09754,0.003 0.146246,0.004 0.02355,0 0.04716,-1.3e-4 0.0708,0 0.0349,-1.1e-4 0.07,0 0.104902,0 h 0.04289 c 0.01389,0 0.02806,0.003 0.04186,0.004 0.09744,0.0132 0.117615,0.0808 0.07545,0.11885 -0.0085,0.0249 -0.03478,0.0456 -0.077,0.0496 0.01355,0.0143 0.01974,0.0304 0.01913,0.046 0.0038,0.003 0.0072,0.004 0.01085,0.007 h 5.29e-4 c 0.03349,0.0228 0.05152,0.048 0.05736,0.0713 0.546783,0.13862 0.479066,0.77785 -0.238746,0.80047 h -0.03979 c 0.116134,0.0793 0.227962,0.16577 0.330729,0.262 0.326401,0.30554 0.303834,0.62282 0.118856,0.75654 0.269957,0.56277 0.337701,1.21092 0.267685,1.82883 -0.04762,0.42029 -0.13601,0.64474 -0.258385,1.03301 -0.108868,0.26419 -0.237873,0.60651 -0.386537,0.85421 -0.561496,0.93573 -1.313241,1.72691 -2.046388,2.52802 2.577962,2.85847 1.844788,2.65303 -0.159163,4.54339 -0.485241,0.12976 -0.963136,0.29144 -1.455724,0.38963 -0.201684,0.0402 -0.409372,0.0778 -0.621668,0.11266 0.695645,0.24905 1.394952,0.48718 2.08411,0.75396 3.160077,1.22332 3.090206,3.84206 1.123444,4.52892 0.199901,1.27492 -0.989592,2.63988 -3.521747,2.56212 -2.176722,-0.0669 -2.604979,-0.0676 -4.759917,-0.18087 -0.364136,-0.019 -0.728602,-0.0391 -1.092954,-0.061 -0.492062,0.4931 -1.039064,0.74339 -1.558047,0.78393 0.01156,0.0503 0.008,0.10538 0.0031,0.15658 h -5.3e-4 c -4.5e-5,0 0,1.1e-4 0,0.003 -1.3e-5,0 -2.64e-4,0.003 -5.29e-4,0.003 h -5.29e-4 -5.29e-4 -5.29e-4 c -0.0046,0.003 -0.01368,0.003 -0.02273,0.003 1.96e-4,0.0286 -0.007,0.0782 -0.01035,0.16383 h -5.29e-4 -5.3e-4 -5.29e-4 -5.29e-4 -5.29e-4 -5.29e-4 c -0.0067,0.003 -0.02172,2.1e-4 -0.02997,0.003 -0.02532,0.005 -0.05059,0.009 -0.07596,0.014 -0.09388,0.0169 -0.187637,0.0331 -0.282154,0.046 h -0.0057 -5.29e-4 -5.29e-4 -5.29e-4 -5.3e-4 c 2.7e-5,0 6.7e-5,0 0,0.003 -0.01746,0.0383 -0.06627,0.0694 -0.146243,0.0682 -0.01987,-2.1e-4 -0.04012,0 -0.05994,0 -0.05065,0.003 -0.101264,0 -0.151929,0 -0.06269,0 -0.125423,0 -0.188103,-0.003 -0.02122,0 -0.08872,-0.003 -0.109553,-0.003 -0.132067,-0.004 -0.264263,-0.006 -0.396359,-0.008 -0.142121,-0.003 -0.284308,-0.008 -0.426331,-0.0167 -0.06047,-0.003 -0.120936,-0.004 -0.181383,-0.007 -0.204414,-0.009 -0.195103,-0.21569 0.0093,-0.20669 0.04725,0.003 0.09431,0.004 0.141595,0.006 0.01553,-0.0259 0.04761,-0.0456 0.09302,-0.0501 -0.01177,0 -0.02299,-0.005 -0.03462,-0.007 v 0.003 c -0.200329,-0.0417 -0.142473,-0.22712 0.05994,-0.19741 0.0045,0 0.0089,0.003 0.01344,0.003 0.03015,0.003 0.07479,0.005 0.109556,0.007 -0.05033,-0.0697 -0.09792,-0.14994 -0.141078,-0.24132 -0.0034,-0.007 -0.0052,-0.0151 -0.0098,-0.0212 -0.0063,-0.009 -0.01635,-0.0154 -0.02273,-0.0243 -0.02824,-0.0393 -0.05417,-0.0797 -0.08113,-0.11988 -0.11517,-0.17153 -0.09638,-0.14381 -0.210841,-0.31989 -0.04362,-0.0671 -0.07966,-0.13287 -0.108519,-0.19637 v 2.34095 H 371.58089 c -0.21088,-0.42552 -0.37531,-0.7539 -0.60876,-1.202 -0.19243,-0.0575 -0.35835,-0.13144 -0.49866,-0.21704 -0.009,0.0828 -0.10041,0.11404 -0.17621,0.0346 -0.0418,0.005 -0.094,-0.019 -0.13644,-0.0863 -0.0156,-0.0246 -0.007,-0.0114 -0.0244,-0.0387 -0.0413,-0.0658 -0.0835,-0.13118 -0.12557,-0.19637 -0.0601,-0.093 -0.11956,-0.18638 -0.1793,-0.27956 -0.0715,-0.11086 -0.14267,-0.22215 -0.21757,-0.33073 -0.0336,-0.047 -0.067,-0.0947 -0.10541,-0.13798 -0.0114,-0.0124 -0.0228,-0.0246 -0.0346,-0.0367 -0.009,-0.01 -0.019,-0.0193 -0.0279,-0.0284 -0.0114,-0.0114 -0.0233,-0.023 -0.0346,-0.0346 -0.0987,-0.0998 -0.059,-0.19706 0.0228,-0.20153 0.0146,-0.019 0.0367,-0.0301 0.062,-0.0305 0.0235,0 0.0496,0.008 0.0754,0.0279 0.004,-0.003 0.008,-0.005 0.0124,-0.008 0.0109,-0.006 0.0214,-0.0116 0.0315,-0.0161 0.006,-0.0544 0.0413,-0.0872 0.0832,-0.0884 0.0434,0 0.0935,0.0313 0.12557,0.108 0.0271,0.0647 0.0546,0.1292 0.0832,0.19328 0.0302,-0.10795 0.0811,-0.21166 0.15245,-0.30797 -0.0756,-0.13266 -0.16224,-0.28446 -0.27906,-0.49094 -0.14287,-0.25246 -0.22127,-0.39356 -0.34986,-0.62425 -0.70442,-1.26387 -0.16443,-2.16668 0.61598,-2.173 0.46826,-0.004 1.0232,0.31485 1.44746,1.0723 0.0959,0.17116 0.24669,0.4413 0.32506,0.57981 0.31142,0.55025 0.40807,0.70964 0.65215,1.16115 0.20286,0.0103 0.40653,0.0183 0.60719,0.0238 0.81169,0.0228 1.00944,0.0183 1.87897,0.0212 0.40404,-0.004 0.80833,-0.006 1.21232,-0.0114 0.40391,-0.006 0.80751,-0.0124 1.21129,-0.0233 1.23647,-0.0331 2.47179,-0.0982 3.70676,-0.16486 0.98014,-0.0681 1.96241,-0.0834 2.94452,-0.0894 0.816,-0.003 1.63197,-0.003 2.44792,-0.003 0.54671,0.003 1.09358,-0.004 1.64021,0.005 0.11803,0.007 0.23616,0.0124 0.35398,0.0228 0.23815,0.0209 0.60296,0.0676 0.8418,0.0987 0.33531,0.0436 0.67009,0.0906 1.00513,0.13642 0.47688,0.072 0.95948,0.0815 1.44073,0.0884 0.30364,0 0.60767,-0.003 0.91104,-0.0145 0.11565,0 0.22903,-0.0209 0.34364,-0.0315 0.0529,-0.004 0.10576,-0.0106 0.15867,-0.014 0.18482,-0.003 0.37203,-0.0281 0.55706,-0.0233 0.0254,0 0.0501,0.003 0.0755,0.004 0.16901,-0.26369 0.44288,-0.41712 0.75549,-0.42376 0.46492,-0.0101 1.01605,0.30482 1.43714,1.06402 0.14015,0.2527 0.27873,0.5062 0.40669,0.76533 0.45997,0.93165 0.29861,1.62648 -0.11885,1.92546 h 0.95186 V 75.954368 Z m 158.513318,0.11679 h 5.3e-4 5.3e-4 c 0.22174,0.01288 0.44246,0.0424 0.66042,0.09612 0.35942,0.08859 0.61308,0.176345 0.87592,0.464056 0.13487,0.147643 0.21464,0.337161 0.32194,0.505912 0.065,0.196596 0.14532,0.389102 0.19482,0.590143 0.10013,0.406355 0.13293,0.859433 0.15193,1.275376 0.0144,0.320371 0.0137,0.793483 0.002,1.120344 -0.005,0.149357 -0.0163,0.298315 -0.0253,0.447519 -0.0546,0.24434 -0.082,0.57859 -0.31265,0.749308 -0.28116,0.208073 -0.55968,0.242162 -0.86299,0.229444 -0.0656,0.406916 -0.13939,0.804886 -0.14728,0.851111 -0.0295,0.15902 -0.0596,0.318191 -0.0904,0.476973 0.28167,0.08313 0.5851,0.31769 0.83561,0.739489 0.0416,0.07005 0.0236,0.03869 0.0915,0.165364 0.13228,0.24692 0.19975,0.37859 0.34003,0.635622 0.15311,0.280514 0.24073,0.435338 0.36742,0.658874 0.11277,-0.08417 0.22855,-0.164164 0.34623,-0.240814 0.0645,-0.04199 0.12336,-0.06014 0.17312,-0.06098 0.1778,-0.003 0.23291,0.215683 0.008,0.366387 -0.11938,0.07831 -0.23695,0.160536 -0.35089,0.247012 0.25864,0.452758 0.20471,0.359786 0.36536,0.636654 0.39979,-0.07836 0.79348,-0.189542 1.18287,-0.308507 0.11294,-0.03451 0.23308,-0.176718 0.33486,-0.11679 0.19455,0.114557 0.19511,0.223216 0.12196,0.314193 -0.001,0.0072 -0.003,0.01426 -0.005,0.02119 -0.0183,0.05211 -0.0665,0.07527 -0.12454,0.08785 -0.12876,0.08172 -0.28363,0.134591 -0.29766,0.14211 -0.23575,0.1529 -0.48062,0.269793 -0.66094,0.467672 0.19397,0.256046 0.37677,0.569291 0.47026,0.715204 0.051,0.0852 0.10123,0.170661 0.15141,0.256312 0.0952,0.04167 0.13182,0.05575 0.13849,0.05633 h 5.3e-4 5.3e-4 5.3e-4 c -0.0125,-0.01468 -0.35151,-0.17753 0.42115,0.202057 0.0721,0.105106 0.21401,0.187799 0.21601,0.315225 0.002,0.165573 -0.0912,0.323948 -0.18965,0.459404 0.19351,0.348154 0.38478,0.697547 0.57775,1.045932 0.0397,0.07161 0.0819,0.150246 0.1266,0.232542 0.10645,0.01487 0.23645,0.03345 0.39533,0.05685 0.0272,0.004 0.062,0.0071 0.10283,0.01035 0.0161,-0.06339 0.0296,-0.123129 0.045,-0.182419 -0.008,-0.168971 -0.0305,-0.348811 0.0946,-0.415478 0.001,-0.0043 0.002,-0.0086 0.003,-0.01291 0.0223,-0.10283 -0.036,-0.329226 0.0672,-0.308507 0.20752,0.04167 0.42179,0.100844 0.62063,0.188101 0.20108,0.0031 0.40384,0.03369 0.59428,0.07597 0.0964,0.0214 -0.0187,0.178197 -0.0594,0.287319 0.001,0.0011 0.002,0.0021 0.003,0.0031 0.13377,0.143942 -0.072,0.386435 -0.10387,0.580327 -0.0705,0.428678 -0.13245,0.858419 -0.19017,1.288812 0.0851,0.02835 0.19197,0.05964 0.35192,0.103867 0.27447,0.07589 0.5608,0.107395 0.83097,0.197406 0.23199,0.07729 0.52009,0.107728 0.66818,0.302307 0.40505,0.532255 -0.18979,1.099397 -0.4191,1.457275 -0.27776,0.595387 -0.54158,0.935196 -0.48009,1.607653 0.16719,0.318191 0.33293,0.637159 0.49663,0.957049 0.0372,0.07314 0.0725,0.146677 0.10644,0.221173 0.18772,0.216934 0.396,0.437888 0.51469,0.567925 0.10089,0.110509 0.11123,0.217392 0.0713,0.283702 0.20757,0.315648 0.40426,0.638181 0.58756,0.968934 0.079,0.138152 0.15489,0.278984 0.2403,0.413414 0.0111,0.01754 0.0246,0.03431 0.0362,0.05168 0.003,0.0044 0.0101,0.01331 0.013,0.0181 8e-5,1.32e-4 0,0.0019 0,0.0021 v 5.29e-4 5.29e-4 5.29e-4 0 0 0 -5.29e-4 c -0.0487,-0.01942 -0.0933,-0.0479 -0.14004,-0.07183 -0.0101,-0.0016 -0.0191,-0.0035 -0.0279,-0.0052 0.0901,0.187801 0.13023,0.359563 0.13177,0.508497 0.12178,0.05007 0.24249,0.101835 0.3602,0.160195 0.0714,-0.04625 0.14131,-0.06762 0.20463,-0.06925 0.24262,-0.0062 0.38568,0.28212 0.11731,0.609266 -0.0191,0.02299 -0.0374,0.04626 -0.0563,0.06925 -0.11195,0.135459 -0.21971,0.273778 -0.32298,0.415988 -0.0971,0.1302 -0.19429,0.26062 -0.29559,0.38758 -0.0921,0.11559 -0.18302,0.23207 -0.27493,0.34778 -0.38291,0.48185 -0.86508,0.09 -0.48266,-0.39222 0.0647,-0.0815 0.12878,-0.16332 0.19328,-0.24495 -0.0204,0.007 -0.0409,0.0145 -0.0615,0.0212 -0.26699,0.0764 -0.53525,0.12062 -0.80875,0.0393 -0.2018,-0.0915 -0.25807,-0.0948 -0.4191,-0.26562 -0.20402,-0.216522 -0.27937,-0.509212 -0.32917,-0.792715 -0.0493,-0.355158 -0.10467,-0.694346 -0.2558,-1.024226 -0.0693,-0.176062 -0.0826,-0.216223 -0.15865,-0.389641 -0.0183,-0.04153 -0.0408,-0.08124 -0.0584,-0.122989 -0.16456,-0.0016 -0.32846,-0.02373 -0.47388,-0.114724 -0.37469,-0.23445 -0.46972,-0.531341 -0.51831,-0.934825 -0.0476,-0.299586 -0.0952,-0.597795 -0.15865,-0.89452 -0.0116,-0.05409 -0.0255,-0.107471 -0.0362,-0.161745 -0.003,-0.01934 -0.001,-0.04026 -0.007,-0.05891 -0.006,-0.01664 -0.0189,-0.02954 -0.0279,-0.04444 -0.27701,-0.210566 -0.37337,-0.233815 -0.52659,-0.581877 -0.1055,-0.240406 -0.13378,-0.506402 -0.13487,-0.767395 -0.26529,-0.385156 -0.52532,-0.774028 -0.78238,-1.164788 -0.52095,-0.785006 -0.98961,-1.602327 -1.45108,-2.423107 -0.32886,-0.602382 -0.65956,-1.204 -0.9927,-1.804025 -0.0263,0.03196 -0.0571,0.05899 -0.0951,0.07752 -0.30514,0.148619 -0.66646,0.244438 -1.00098,0.187069 -0.27308,-0.04683 -0.33488,-0.612826 -0.37258,-0.795817 -0.0312,-0.754451 -0.0534,-1.50985 -0.0972,-2.263944 -0.006,-0.01098 -0.0121,-0.02209 -0.0181,-0.03307 -0.004,0.0092 -0.007,0.01778 -0.0109,0.02585 -0.0839,0.197514 -0.46748,1.104767 -0.56069,1.310513 -0.0771,0.170262 -0.0682,0.438869 -0.24288,0.505396 -1.0043,0.3825 -1.28786,0.371002 -1.28985,-0.313161 -2.6e-4,-0.11114 0.0332,-0.21985 0.0501,-0.329694 0.24864,-1.182719 0.5178,-2.360994 0.76533,-3.54397 -0.009,-0.01421 -0.0175,-0.02868 -0.0263,-0.04289 -0.25908,-0.405667 -0.49939,-0.822452 -0.74259,-1.237652 -0.006,-0.0093 -0.0118,-0.01855 -0.0176,-0.0279 -0.0946,0.06689 -0.19311,0.119155 -0.30386,0.115236 -0.31937,-0.01122 -0.64777,-0.148058 -0.89038,-0.356049 -0.12141,-0.10409 -0.0517,-0.316043 -0.0775,-0.473874 0.0272,-0.134763 0.0562,-0.269164 0.0879,-0.403075 -0.18233,0.04085 -0.37793,-0.131791 -0.33848,-0.489894 0.0266,-0.241427 0.0847,-0.476414 0.15038,-0.709517 -0.13068,0.179927 -0.18506,0.165814 -0.42013,-0.05013 -0.12513,-0.03669 -0.23613,-0.123132 -0.32711,-0.216524 -0.0458,-0.04664 -0.008,-0.274794 0.002,-0.342614 0.02,-0.122246 0.045,-0.243708 0.0734,-0.364318 -0.23228,0.178353 -0.53985,-0.03494 -0.41031,-0.482143 0.0529,-0.182679 0.1052,-0.365606 0.1633,-0.546737 0.0408,-0.132731 0.0978,-0.25899 0.16484,-0.380336 0.0551,-0.09112 0.12171,-0.174678 0.18811,-0.257868 0.006,-0.0209 0.0137,-0.04212 0.0222,-0.06408 0.0465,-0.1202 0.096,-0.239229 0.14572,-0.358119 0.0964,-0.230688 0.24828,-0.328274 0.37879,-0.324527 0.0379,0.0011 0.074,0.01053 0.10646,0.02791 0.0278,-0.0076 0.055,-0.0113 0.0811,-0.01138 0.11257,-2.27e-4 0.20471,0.06704 0.23926,0.176734 0.12227,-0.130551 0.25638,-0.249005 0.39481,-0.362252 0.13182,-0.101957 0.2733,-0.192979 0.42995,-0.252698 0.19066,-0.07269 0.37197,-0.11226 0.57412,-0.144177 0.1164,-0.01839 0.23388,-0.02824 0.35088,-0.04237 0.22289,-0.01341 0.44592,-0.0163 0.66766,-0.0047 z m -0.0186,0.620633 c -0.19004,-0.01162 -0.38133,-0.01064 -0.57516,0.0011 -0.28179,0.03257 -0.59915,0.05412 -0.85679,0.186552 -0.0719,0.03694 -0.11409,0.07119 -0.17829,0.117822 -0.0158,0.01281 -0.0314,0.02577 -0.047,0.03876 0.0736,0.01064 0.1424,0.04295 0.19068,0.104902 0.146,0.187317 0.10154,0.264205 0.062,0.4377 -0.007,0.01982 -0.0152,0.03905 -0.0233,0.05839 0.0381,0.01998 0.046,0.04511 0.0372,0.08682 0.19335,-0.34358 0.44769,-0.50051 0.67334,-0.512112 h 5.3e-4 0.001 5.3e-4 c 0.41166,-0.01669 0.72491,0.450358 0.39326,1.143082 -0.22681,0.47375 -0.41144,0.964319 -0.5855,1.459344 -0.007,0.02011 -0.0134,0.03982 -0.0202,0.05994 0.0536,0.134167 0.10682,0.268803 0.16019,0.403074 0.0282,-0.0236 0.0552,-0.04649 0.0811,-0.06821 0.13167,-0.108307 0.50763,-0.446318 0.69556,-0.490408 0.20094,-0.04715 0.46013,-0.152114 0.61857,-0.01963 0.27464,0.229272 0.41473,0.602694 0.49713,0.950846 0.01,0.04098 0.003,0.145405 -0.0119,0.284221 0.0224,0.0016 0.0448,0.0038 0.0672,0.0057 0.068,0.0056 0.13962,0.04005 0.20412,0.0181 0.15393,-0.05298 0.17187,-0.324787 0.19637,-0.422196 0.008,-0.140779 0.0198,-0.281273 0.0248,-0.422198 0.0113,-0.314243 0.0121,-0.758005 -0.001,-1.067117 -0.0161,-0.378987 -0.0421,-0.759556 -0.12454,-1.131197 -0.0348,-0.156835 -0.0921,-0.307539 -0.13797,-0.461471 -0.12688,-0.244779 -0.16334,-0.411506 -0.41445,-0.552939 -0.11012,-0.06203 -0.23682,-0.08913 -0.35915,-0.120923 -0.18918,-0.04916 -0.37839,-0.0757 -0.56844,-0.08733 z m -1.58957,0.887801 v 5.29e-4 c -0.001,0.0013 -0.004,0.0046 -0.007,0.0098 0.002,2.65e-4 0.004,0.0011 0.006,0.0016 0.001,-0.0048 0.002,-0.0089 0.002,-0.01085 v -5.29e-4 -5.29e-4 h -5.2e-4 z m 1.3746,3.856096 c -0.0157,0.01312 -0.0318,0.02659 -0.0476,0.03979 0.01,0.02193 0.0202,0.04336 0.03,0.0646 0.006,-0.03472 0.0118,-0.06964 0.0176,-0.104386 z m 3.55378,4.873088 c -0.0324,0.0078 -0.065,0.0154 -0.0971,0.02273 0.0131,0.01064 0.0264,0.02193 0.0398,0.0341 0.0187,-0.01963 0.0378,-0.03852 0.0574,-0.05684 z m 1.1033,1.822627 c 0.0479,0.08443 0.0952,0.169071 0.14262,0.253733 0.01,-0.0081 0.0176,-0.01789 0.0233,-0.02998 0.0256,-0.05622 -0.0434,-0.115763 -0.0651,-0.173633 -0.0337,-0.01659 -0.0671,-0.03332 -0.10076,-0.05012 z m 1.20612,2.174544 c 0.042,0.07165 0.0854,0.142333 0.12919,0.210323 0.0182,-0.06143 0.0369,-0.122672 0.0553,-0.183968 -0.0179,-0.0024 -0.0355,-0.0046 -0.0532,-0.0072 -0.0461,-0.0068 -0.0899,-0.0131 -0.13126,-0.01913 z m 1.30742,1.538925 c -0.0389,0.300789 -0.0765,0.601777 -0.11421,0.902788 -0.01,0.08375 -0.0287,0.243255 -0.0501,0.427879 0.30207,0.445955 0.57537,0.910743 0.84128,1.379246 0.0812,-0.418354 0.28845,-0.740738 0.5085,-1.206645 0.14571,-0.198263 0.30988,-0.384241 0.4372,-0.594797 0.0626,-0.103521 0.20124,-0.243522 0.12763,-0.339513 -0.13485,-0.175834 -0.39274,-0.210278 -0.60306,-0.280088 -0.2631,-0.08732 -0.75191,-0.159139 -1.14722,-0.28887 z M 97.662211,324.8136 l -5.3e-4,0.003 h 5.3e-4 c 0.0041,0.006 0.01016,0.009 0.0155,0.0135 -7.9e-5,-8e-5 -5.29e-4,-0.003 -5.29e-4,-0.003 h -5.29e-4 c -0.0035,-0.003 -0.01212,-0.0106 -0.01447,-0.0124 z m -4.408001,2.57606 c -0.02072,0.0284 -0.0416,0.0571 -0.06201,0.0858 0.03571,-0.0206 0.07114,-0.0419 0.105937,-0.0641 h 5.29e-4 5.29e-4 5.29e-4 5.3e-4 c -0.0052,-0.009 -0.02714,-0.0206 -0.03927,-0.019 v -0.003 c -0.0016,1.6e-4 -0.003,0 -0.0041,0 h -5.29e-4 -5.29e-4 -5.29e-4 -5.3e-4 z m -1.695503,1.85518 c -0.02977,0.004 -0.161076,0.0629 -0.187068,0.11059 -0.0084,0.0154 -0.01656,0.0311 -0.02532,0.0465 0.07125,-0.0465 0.141623,-0.0943 0.209288,-0.14574 0.0045,-0.003 0.0071,-0.006 0.0083,-0.008 h -5.29e-4 c -0.0011,-1.8e-4 -0.0029,-2.1e-4 -0.0047,0 z m -0.245981,0.215 c -0.236831,0.39944 -0.5643,0.796 -0.54932,1.25158 0.0087,0.26289 0.0791,0.51718 0.181386,0.76327 0.03533,0.0193 0.07864,0.0427 0.131257,0.0713 0.193521,0.0259 0.349692,0.0466 0.47594,0.0636 0.02495,-0.0284 0.04991,-0.0564 0.07493,-0.0847 -0.129045,-0.68752 -0.265909,-1.3748 -0.314193,-2.06499 z m -0.35915,2.03605 c 0.0734,0.17314 0.162578,0.3425 0.256831,0.50797 0.05991,-0.0701 0.119864,-0.14018 0.180353,-0.20982 -0.17204,-0.12432 -0.331115,-0.22939 -0.437184,-0.29815 z m -3.665927,3.3388 v 0 0.003 0.003 c -0.02204,2.1e-4 -0.05164,0.008 -0.05943,0.0156 h -5.29e-4 v 0 c -1.75e-4,0 -7.94e-4,0.003 -0.0011,0.003 h 5.29e-4 5.29e-4 5.29e-4 5.29e-4 5.3e-4 5.29e-4 5.29e-4 c 0.02976,0.0148 0.05983,0.0297 0.08992,0.0439 -0.0021,-0.019 -0.005,-0.0393 -0.0072,-0.0584 h -5.29e-4 c -4.5e-5,0 0,-1.8e-4 0,-0.003 h -5.29e-4 -5.29e-4 -5.29e-4 -5.3e-4 l -5.29e-4,-0.003 c -0.0046,-0.004 -0.0131,-0.005 -0.02222,-0.005 z m -2.727997,3.86694 v 1.6397 c 0.23381,0.0108 0.479425,0.0368 0.73587,0.0791 0.140121,0.0233 0.279374,0.0509 0.420132,0.0698 0.06135,0.008 0.122579,0.0167 0.183967,0.0249 0.02098,-0.0307 0.04224,-0.0621 0.06356,-0.0925 0.182216,-0.25768 0.36313,-0.51583 0.550873,-0.76946 -0.09482,-0.0398 -0.18951,-0.0804 -0.284223,-0.12039 -0.286086,-0.12094 -0.5823,-0.22272 -0.85576,-0.37002 -0.266928,-0.1438 -0.70679,-0.20129 -0.81442,-0.46095 z m 301.925768,7.6445 c -0.81052,0 -1.62091,2.1e-4 -2.43139,0.003 -0.94519,0.006 -1.89066,0.0196 -2.83392,0.0858 -1.26201,0.068 -2.52439,0.13433 -3.78791,0.16793 -0.41185,0.0109 -0.82412,0.0182 -1.23608,0.0243 -0.41391,0.006 -0.82785,0.007 -1.24179,0.0109 -0.57714,-0.003 -0.87961,1e-4 -1.24955,-0.006 0.11311,0.22836 0.2409,0.48614 0.39843,0.80306 0.029,0.0588 0.0579,0.11787 0.0868,0.17674 H 395.181 c -0.30136,-0.16359 -0.60341,-0.45582 -0.8599,-0.89712 -0.0654,0 -0.13277,-0.003 -0.20206,-0.008 -0.16187,-0.0114 -0.0718,-0.003 -0.27078,-0.0274 -0.0819,-0.0177 -0.16015,-0.0354 -0.23772,-0.0594 -0.0869,0.004 -0.17407,0.007 -0.26096,0.0124 -0.19439,0.0101 -0.38648,0.0511 -0.58187,0.0491 -0.3442,0.0127 -0.68861,0.0156 -1.03302,0.0156 -0.57586,-0.008 -1.15326,-0.0243 -1.72394,-0.10956 -0.32748,-0.0447 -0.65456,-0.0905 -0.98235,-0.13333 -0.1643,-0.0214 -0.53202,-0.0688 -0.70591,-0.0858 -0.0784,-0.007 -0.15705,-0.0114 -0.23563,-0.0164 -0.53377,-0.0101 -1.06765,-0.003 -1.60145,-0.005 z" />
    </clipPath>
    <clipPath
       clipPathUnits="userSpaceOnUse"
       id="clipPath903">
      <path
         id="path903"
         style="fill:#550000;fill-opacity:0.733333;stroke:#000000;stroke-width:0.964999;stroke-dasharray:none;stroke-opacity:1"
         d="M 113.20084,83.013539 V 396.05387 H 434.37866 V 83.013539 Z m 144.37,26.929101 c 0.33273,0.0115 0.72935,0.2463 1.04283,0.77412 0.0416,0.07 0.0236,0.0387 0.0915,0.16536 0.13228,0.24692 0.19975,0.37859 0.34003,0.63562 0.20028,0.36695 0.28845,0.51918 0.49868,0.8909 0.3809,0.66656 0.19066,0.33635 0.56999,0.99064 0.82106,1.41623 -0.60994,2.24568 -1.43092,0.8294 -0.38569,-0.66535 -0.19251,-0.33013 -0.57878,-1.00613 -0.22128,-0.39139 -0.30474,-0.53576 -0.51573,-0.92243 -0.14942,-0.27382 -0.19973,-0.37274 -0.33693,-0.6289 -0.0235,-0.0438 -0.0471,-0.0876 -0.0708,-0.13126 -0.0199,-0.0373 -0.0401,-0.0748 -0.06,-0.11214 -0.48141,-0.90281 -0.10445,-1.5044 0.4501,-1.48518 z" />
    </clipPath>
    <linearGradient
       xlink:href="#linearGradient904"
       id="linearGradient905"
       x1="108.18699"
       y1="353.5672"
       x2="311.11923"
       y2="251.97804"
       gradientUnits="userSpaceOnUse"
       gradientTransform="matrix(0.07864606,0,0,0.06915134,-4.0191996,-0.53345645)" />
    <linearGradient
       xlink:href="#linearGradient913"
       id="linearGradient907"
       x1="268.24689"
       y1="120.47114"
       x2="243.87866"
       y2="350.39404"
       gradientUnits="userSpaceOnUse" />
    <linearGradient
       xlink:href="#linearGradient908"
       id="linearGradient909"
       x1="197.42314"
       y1="250.54498"
       x2="388.35928"
       y2="375.13031"
       gradientUnits="userSpaceOnUse"
       gradientTransform="matrix(0.07864606,0,0,0.06915134,-4.0191996,-0.53345645)" />
    <linearGradient
       xlink:href="#linearGradient906"
       id="linearGradient912"
       x1="987.75226"
       y1="408.11337"
       x2="905.5625"
       y2="540"
       gradientUnits="userSpaceOnUse"
       gradientTransform="matrix(0.02080848,0,0,0.01829629,-4.0191996,-0.53345645)" />
    <linearGradient
       xlink:href="#linearGradient1227"
       id="linearGradient1228"
       x1="266.07492"
       y1="85.713997"
       x2="262.83771"
       y2="350.29733"
       gradientUnits="userSpaceOnUse"
       gradientTransform="matrix(0.07864606,0,0,0.06915134,-4.0191996,-0.53345645)" />
    <linearGradient
       xlink:href="#linearGradient1227"
       id="linearGradient1232"
       gradientUnits="userSpaceOnUse"
       gradientTransform="matrix(-0.03932303,-0.06546954,0.06230165,-0.03457571,7.2008672,45.613852)"
       x1="266.07492"
       y1="85.713997"
       x2="262.83771"
       y2="350.29733" />
    <linearGradient
       xlink:href="#linearGradient1227"
       id="linearGradient1233"
       gradientUnits="userSpaceOnUse"
       gradientTransform="matrix(0.03932303,-0.06546954,-0.06230165,-0.03457571,23.983114,47.123599)"
       x1="266.07492"
       y1="85.713997"
       x2="262.83771"
       y2="350.29733" />
    <linearGradient
       inkscape:collect="always"
       xlink:href="#linearGradient16"
       id="linearGradient18"
       x1="2.7068324"
       y1="499.02847"
       x2="441.8031"
       y2="161.35127"
       gradientUnits="userSpaceOnUse" />
  </defs>
  <g
     id="layer1"
     transform="matrix(14.026443,0,0,14.286524,32.715446,23.213475)">
    <rect
       style="fill:url(#linearGradient18);stroke:#000000;stroke-width:0.99918;stroke-opacity:0"
       id="rect1"
       width="499.00079"
       height="499.00082"
       x="0.49959001"
       y="0.49959001"
       transform="matrix(0.07129391,0,0,0.06999603,-2.3324121,-1.6248512)" />
    <path
       id="path15"
       clip-path="url(#clipPath898)"
       style="fill:none;stroke:#000000;stroke-width:0.965;stroke-opacity:0"
       d="M 434.48476,369.34322 46.899249,370.14413 240.2394,33.865664 Z"
       transform="matrix(0.09248992,0,0,0.08290576,-6.7354857,-1.7276155)" />
    <path
       id="path20"
       clip-path="url(#clipPath901)"
       style="fill:none;stroke:#000000;stroke-width:0.964999;stroke-opacity:0"
       d="M 396.40779,345.41235 85.392734,347.12102 239.42051,76.919748 Z"
       transform="matrix(0.07864605,0,0,0.06915135,-2.9232173,1.3405319)" />
    <path
       id="path21"
       style="fill:none;stroke:#000000;stroke-width:0.0711649;stroke-opacity:0"
       d="M 25.052122,23.784432 6.7286538,23.740479 15.933679,9.809634 Z" />
    <path
       style="fill:none;stroke:#000000;stroke-width:0.964999;stroke-dasharray:none;stroke-opacity:0"
       d="M 238.6124,78.314941 C 253.43373,52.691626 253.43373,52.691626 253.43373,52.691626"
       id="path22"
       clip-path="url(#clipPath469)"
       transform="matrix(0.07864605,0,0,0.06915135,-2.9232173,1.3405319)" />
    <path
       style="fill:none;stroke:#000000;stroke-width:0.0708621;stroke-dasharray:none;stroke-opacity:0"
       d="M 3.9272288,25.343284 1.795713,25.360714"
       id="path23" />
    <path
       style="fill:none;stroke:#000000;stroke-width:0.0703006;stroke-dasharray:none;stroke-opacity:0"
       d="m 28.095349,24.996111 1.311971,1.887673"
       id="path24" />
    <path
       style="fill:none;stroke:#000000;stroke-width:0.964999;stroke-dasharray:none;stroke-opacity:0"
       d="M 236.63886,128.36779 253.97228,99.478757"
       id="path25"
       clip-path="url(#clipPath122)"
       transform="matrix(0.07656082,0,0,0.0658432,-2.3942356,1.6628986)" />
    <path
       style="fill:none;stroke:#000000;stroke-width:0.0714666;stroke-dasharray:none;stroke-opacity:0"
       d="M 6.827689,23.741254 H 4.815364"
       id="path26" />
    <path
       style="fill:none;stroke:#000000;stroke-width:0.0728584;stroke-dasharray:none;stroke-opacity:0"
       d="m 24.934332,23.611135 1.1899,1.641006"
       id="path27" />
    <path
       style="fill:none;stroke:#000000;stroke-width:0.0711648;stroke-dasharray:none;stroke-opacity:0"
       d="m 16.886477,5.1568193 c -1.866996,0.00866 -1.866996,0.00866 -1.866996,0.00866"
       id="path212" />
    <path
       style="fill:none;stroke:#000000;stroke-width:0.0659129;stroke-dasharray:none;stroke-opacity:0"
       d="m 1.8013617,25.370096 c 1.0796689,1.539057 1.0955458,1.557595 1.0955458,1.557595"
       id="path213" />
    <path
       style="fill:none;stroke:#000000;stroke-width:0.0711648;stroke-dasharray:none;stroke-opacity:1"
       d="M 7.8243746,27.362947 Z"
       id="path214" />
    <path
       style="fill:none;stroke:#000000;stroke-width:0.0718626;stroke-dasharray:none;stroke-opacity:0"
       d="m 29.422946,26.845771 0.726992,-1.610366"
       id="path215" />
    <path
       style="fill:url(#linearGradient905);fill-opacity:0.733333;stroke:#000000;stroke-width:0.0711648;stroke-dasharray:none;stroke-opacity:0"
       d="m 15.024064,5.1869052 c 0.625006,0.00173 1.171208,-0.00118 1.775019,0 C 12.795615,11.388276 8.7709631,17.577659 4.7553974,23.771784 c 8.0808416,0.02704 9.6633576,0.03075 20.2760836,0.0552 l 0.98452,1.358875 C -24.072154,25.591154 50.676969,24.848978 1.8775623,25.321907 3.6741335,22.584846 8.0569278,15.873874 15.024064,5.1869052 Z"
       id="path862" />
    <path
       style="fill:url(#linearGradient907);fill-opacity:0.733333;stroke:#000000;stroke-width:0.964999;stroke-dasharray:none;stroke-opacity:0"
       d="m 267.22722,126.79055 c -0.1197,-0.0385 -0.92349,1.08973 -1.78621,2.50714 -43.84278,73.11032 -86.27629,147.29223 -129.15624,221.12295 -7.53366,0.0711 -15.06951,0.10343 -22.60122,0.0149 0,-0.18997 137.77451,-241.85534 145.59671,-255.386 5.8006,-10.03374 6.7998,-12.350214 7.05323,-11.976684 55.90249,96.424414 111.88602,193.373894 167.70108,289.862464 -2.80009,7.32116 -6.1877,15.45582 -9.0748,22.17335 C 408.4017,368.46266 267.62557,126.91862 267.22722,126.79055 Z"
       id="path863"
       clip-path="url(#clipPath903)"
       transform="matrix(0.07864605,0,0,0.06915135,-4.0191993,-0.53345655)" />
    <path
       style="fill:url(#linearGradient909);fill-opacity:0.733333;stroke:#000000;stroke-width:0.0711648;stroke-dasharray:none;stroke-opacity:0"
       d="M 1.8866796,25.406423 H 2.0377965 C 10.08611,25.346611 18.134614,25.318897 26.18303,25.276478 22.70748,20.20171 19.3511,14.987219 16.005521,9.81222 c 0,-0.02322 0.969371,-1.41811 0.985609,-1.418259 0.02335,-2.07e-4 10.253313,15.456523 12.319588,18.433402 -8.793517,0.04779 -17.587404,0.04651 -26.3810582,0.06988 C 2.5799777,26.401687 2.2325781,25.904577 1.8866796,25.406425 Z"
       id="path864" />
    <path
       style="fill:url(#linearGradient912);fill-opacity:1;stroke:#000000;stroke-width:0;stroke-dasharray:none;stroke-opacity:1"
       d="m 16.397561,7.416113 c -0.02585,-0.0026 -0.05127,-0.01988 -0.07052,-0.04772 -0.0063,-0.009 -0.03838,-0.05824 -0.05744,-0.0879 -0.02103,-0.03263 -0.02935,-0.04594 -0.05008,-0.08018 -0.0063,-0.01039 -0.01306,-0.02158 -0.01506,-0.02472 -0.01137,-0.01852 -0.01704,-0.03239 -0.01905,-0.04803 -6.29e-4,-0.0043 -5.48e-4,-0.01384 1.58e-4,-0.01786 0.0028,-0.01698 0.01221,-0.02927 0.02699,-0.03583 0.01052,-0.0046 0.02301,-0.0059 0.03598,-0.0035 0.0216,0.004 0.04279,0.01743 0.06049,0.03828 0.0074,0.0088 0.0105,0.0135 0.02614,0.03909 0.01334,0.02205 0.02244,0.03695 0.03142,0.05095 0.01306,0.02069 0.04302,0.06691 0.05926,0.09149 0.01363,0.0208 0.01562,0.0238 0.01848,0.02891 0.0058,0.01075 0.0098,0.02144 0.01163,0.03209 9.65e-4,0.0052 0.0012,0.0159 4.73e-4,0.02121 -0.0025,0.01699 -0.01193,0.03061 -0.0267,0.0381 -0.0092,0.0046 -0.02129,0.0067 -0.03213,0.0055 z"
       id="path904" />
    <path
       style="fill:url(#linearGradient1228);stroke:#000000;stroke-width:0;stroke-dasharray:none;stroke-opacity:0"
       d="M 18.095154,9.873297 23.703449,16.902888 19.494161,9.117427 16.921697,5.1869052 14.371096,9.117427 10.216563,16.902888 15.838514,9.873297 16.98831,8.229516 Z"
       id="path916" />
    <path
       style="fill:url(#linearGradient1232);stroke:#000000;stroke-width:0;stroke-dasharray:none;stroke-opacity:0"
       d="M 5.781993,22.19468 9.875988,14.484001 4.4180415,21.438809 1.8775591,25.322757 6.9308426,25.289867 16.654759,24.534769 6.8781341,23.778753 4.753314,23.773553 Z"
       id="path916-0" />
    <path
       style="fill:url(#linearGradient1233);stroke:#000000;stroke-width:0;stroke-dasharray:none;stroke-opacity:0"
       d="m 25.149703,23.753093 -3.966023,-7.604623 5.506023,6.8061 2.625033,3.878554 -5.110322,0.0079 -9.635834,-0.711988 9.633176,-0.836223 1.97835,-0.01607 z"
       id="path916-0-6" />
  </g>
</svg>
